<?xml version="1.0" standalone="no"?>
<!DOCTYPE svg PUBLIC "-//W3C//DTD SVG 1.1//EN" "http://www.w3.org/Graphics/SVG/1.1/DTD/svg11.dtd" >
<svg xmlns="http://www.w3.org/2000/svg">
<metadata>
Created by FontForge 20120731 at Sat May  6 17:57:16 2017
 By admin
</metadata>
<defs>
<font id="iconfont" horiz-adv-x="1024" >
  <font-face 
    font-family="iconfont"
    font-weight="500"
    font-stretch="normal"
    units-per-em="1024"
    panose-1="2 0 6 3 0 0 0 0 0 0"
    ascent="896"
    descent="-128"
    x-height="792"
    bbox="0 -181 1219 896"
    underline-thickness="0"
    underline-position="0"
    unicode-range="U+0078-E7D9"
  />
<missing-glyph 
 />
    <glyph glyph-name=".notdef" 
 />
    <glyph glyph-name=".notdef" 
 />
    <glyph glyph-name=".null" horiz-adv-x="0" 
 />
    <glyph glyph-name="nonmarkingreturn" horiz-adv-x="341" 
 />
    <glyph glyph-name="x" unicode="x" horiz-adv-x="1001" 
d="M281 543q-27 -1 -53 -1h-83q-18 0 -36.5 -6t-32.5 -18.5t-23 -32t-9 -45.5v-76h912v41q0 16 -0.5 30t-0.5 18q0 13 -5 29t-17 29.5t-31.5 22.5t-49.5 9h-133v-97h-438v97zM955 310v-52q0 -23 0.5 -52t0.5 -58t-10.5 -47.5t-26 -30t-33 -16t-31.5 -4.5q-14 -1 -29.5 -0.5
t-29.5 0.5h-32l-45 128h-439l-44 -128h-29h-34q-20 0 -45 1q-25 0 -41 9.5t-25.5 23t-13.5 29.5t-4 30v167h911zM163 247q-12 0 -21 -8.5t-9 -21.5t9 -21.5t21 -8.5q13 0 22 8.5t9 21.5t-9 21.5t-22 8.5zM316 123q-8 -26 -14 -48q-5 -19 -10.5 -37t-7.5 -25t-3 -15t1 -14.5
t9.5 -10.5t21.5 -4h37h67h81h80h64h36q23 0 34 12t2 38q-5 13 -9.5 30.5t-9.5 34.5q-5 19 -11 39h-368zM336 498v228q0 11 2.5 23t10 21.5t20.5 15.5t34 6h188q31 0 51.5 -14.5t20.5 -52.5v-227h-327z" />
    <glyph glyph-name="roundcheckfill" unicode="&#xe656;" 
d="M512 830q-91 0 -173.5 -35.5t-142 -95t-95 -142t-35.5 -173.5t35.5 -173.5t95 -142t142 -95t173.5 -35.5t173.5 35.5t142 95t95 142t35.5 173.5t-35.5 173.5t-95 142t-142 95t-173.5 35.5zM727 458l-256 -259v-1v0q-2 -1 -7 -4q-1 -1 -2 -1.5t-2 -1.5q-6 -2 -12 -2t-12 2
q-1 1 -2 1.5t-1 1.5q-6 3 -7 4v1h-1l-126 129q-9 10 -9 23t9.5 22.5t23 9t22.5 -9.5l103 -106l234 236q9 9 22.5 9t22.5 -9t9.5 -22.5t-9.5 -22.5z" />
    <glyph glyph-name="roundclosefill" unicode="&#xe658;" 
d="M512 832q-185 0 -316.5 -131.5t-131.5 -316.5t131.5 -316.5t316.5 -131.5t316.5 131.5t131.5 316.5t-131.5 316.5t-316.5 131.5zM695 246q9 -9 9 -22.5t-9.5 -23t-22.5 -9.5t-23 10l-137 138l-138 -137q-10 -9 -23 -9t-22.5 9.5t-9.5 22.5t10 23l138 136l-138 138
q-9 9 -9 22.5t9.5 23t22.5 9.5t23 -10l137 -138l138 137q10 9 23 9t22.5 -9.5t9.5 -22.5t-10 -23l-138 -136z" />
    <glyph glyph-name="unfold" unicode="&#xe661;" 
d="M890.5 565q-9.5 9 -23 9t-22.5 -9l-328 -331l-332 329q-10 10 -23 10t-22.5 -9.5t-9.5 -23t10 -22.5l353 -350l1 -0.5l1 -0.5v-1q10 -9 23 -9t22 9l350 354q10 9 10 22.5t-9.5 22.5z" />
    <glyph glyph-name="jiantou1" unicode="&#xe61e;" 
d="M362 626h154l247 -318l-254 -310h-146l250 310zM610 16z" />
    <glyph glyph-name="question" unicode="&#xe691;" 
d="M512 112zM464 112q0 20 14 34t34 14t34 -14t14 -34t-14 -34t-34 -14t-34 14t-14 34zM512 -64q-185 0 -316.5 131.5t-131.5 316.5t131.5 316.5t316.5 131.5t316.5 -131.5t131.5 -316.5t-131.5 -316.5t-316.5 -131.5zM512 768q-104 0 -192.5 -51.5t-140 -140t-51.5 -192.5
t51.5 -192.5t140 -140t192.5 -51.5t192.5 51.5t140 140t51.5 192.5t-51.5 192.5t-140 140t-192.5 51.5zM512 222q-13 0 -22.5 9.5t-9.5 22.5v54q0 25 13 50t25.5 39.5t36.5 38.5q18 18 26.5 27t17.5 23t9 24q0 40 -28 68.5t-68 28.5t-68 -27.5t-28 -67.5q0 -13 -9.5 -22.5
t-22.5 -9.5t-22.5 9.5t-9.5 22.5q0 66 47 112.5t113 46.5t113 -47t47 -114q0 -22 -12 -45.5t-24 -37t-35 -36.5q-19 -19 -28.5 -29t-19 -26t-9.5 -28v-54q0 -13 -9.5 -22.5t-22.5 -9.5z" />
    <glyph glyph-name="goods" unicode="&#xe6cd;" 
d="M934 608q0 12 -9.5 20.5t-22.5 8.5h-137q-20 82 -87 135.5t-153 53.5h-19q-86 0 -153.5 -53.5t-86.5 -135.5h-138q-14 2 -23 -6t-9 -23l-29 -554v-3q5 -50 41 -82.5t84 -32.5h650q48 0 83.5 33.5t37.5 81.5v3zM838 0h-646q-22 0 -38.5 15.5t-19.5 38.5l23 522h102v-134
q-14 -8 -23 -23t-9 -32q0 -26 19 -45t45.5 -19t45 19t18.5 45q0 17 -8.5 32t-23.5 23v140q0 77 54 130t129 53h19q76 0 129 -54t53 -129v-144q-14 -7 -23 -22t-9 -32q0 -26 19 -45t45.5 -19t45 19t18.5 45q0 17 -8.5 32t-23.5 22v138h99l26 -522q0 -23 -16.5 -38.5
t-41.5 -15.5zM611 640h-192q-14 0 -23 -9t-9 -23t9 -23t23 -9h192q15 0 23.5 9t8.5 23t-8.5 23t-23.5 9z" />
    <glyph glyph-name="tubiaozitihua06" unicode="&#xe73c;" 
d="M951 29l-197 116q-8 3 -17.5 1.5t-15.5 -7.5l-58 -58q-15 -14 -36 -15q-3 0 -8.5 1t-26 8t-43 20t-59 41.5t-75 67t-67 74.5t-41 59t-20 43.5t-8 26t-0.5 8.5q0 21 14 36l50 49q6 6 7.5 16t-1.5 18l-109 204q-3 8 -10 9t-13 -5l-135 -134q-15 -15 -17 -36
q-1 -4 -1.5 -11.5t2.5 -33.5t10 -54t24.5 -71t43 -87t69.5 -101t100.5 -113t112.5 -100t101.5 -70t87 -43.5t72 -24.5t53 -9.5t34 -2l11.5 0.5q21 3 35 18l135 134q6 6 5 13.5t-9 11.5zM470 397q46 -12 79 -45t45 -79h55q-9 70 -59 119q-49 50 -120 59v-54zM883 273h64
q-1 91 -41.5 177.5t-105.5 151.5t-152 105t-178 42v-64q109 -6 201.5 -62t148.5 -148.5t63 -201.5zM734 273h64q-9 132 -103 225.5t-225 102.5v-66q105 -8 179.5 -82.5t84.5 -179.5z" />
    <glyph glyph-name="service" unicode="&#xe6ff;" 
d="M835 307q5 12 0.5 24.5t-16.5 17.5t-24.5 0.5t-16.5 -16.5q-12 -22 -57 -33.5t-113 -11.5q-14 0 -23 -9t-9 -23t9 -23t23 -9h10q178 0 217 83zM906 458l-42 16q-10 137 -111.5 233t-240.5 96q-93 0 -172 -45t-127 -122t-53 -169l-19 -13q-13 -12 -13 -25v-135
q0 -14 9 -23t23 -9t23 9t9 23v116l19 12q13 13 13 29q0 120 84 204t204 84t204 -84t84 -204q0 -9 6.5 -17.5t15.5 -11.5l42 -16v-108q0 -15 9 -23.5t23 -8.5t23 8.5t9 23.5v134q0 8 -6.5 15.5t-15.5 10.5zM512 246q-75 0 -128.5 53.5t-53.5 129.5q0 75 53 128.5t129 53.5
q75 0 128.5 -53t53.5 -129q0 -26 -3 -39q-2 -12 5 -24t21 -14q12 -3 24 4.5t14 21.5q7 32 7 51q0 101 -72 173.5t-175 72.5t-174.5 -71.5t-71.5 -174.5q0 -64 30 -117.5t82 -87.5q-85 -29 -143 -94t-75 -152q-2 -13 5 -24.5t21 -14.5h6q27 0 32 26q19 98 98.5 157.5
t189.5 59.5q15 0 23.5 9t8.5 23q-5 32 -35 32zM755 186q-9 7 -23.5 6t-21.5 -13q-7 -9 -6 -23.5t13 -21.5q96 -75 115 -172q5 -26 32 -26h6q13 2 20.5 13t5.5 25q-23 121 -141 212z" />
    <glyph glyph-name="mobile" unicode="&#xe704;" 
d="M736 -96h-448q-40 0 -68 28t-28 68v768q0 40 28 68t68 28h448q40 0 68 -28t28 -68v-768q0 -40 -28 -68t-68 -28zM288 800q-13 0 -22.5 -9.5t-9.5 -22.5v-768q0 -13 9.5 -22.5t22.5 -9.5h448q13 0 22.5 9.5t9.5 22.5v768q0 13 -9.5 22.5t-22.5 9.5h-448zM512 0
q-26 0 -45 18.5t-19 45t19 45.5t45 19t45 -19t19 -45.5t-19 -45t-45 -18.5zM512 64v0v-32v32zM704 160h-384q-13 0 -22.5 9.5t-9.5 22.5v544q0 13 9.5 22.5t22.5 9.5h384q13 0 22.5 -9.5t9.5 -22.5v-544q0 -13 -9.5 -22.5t-22.5 -9.5zM352 224h320v480h-320v-480z" />
    <glyph glyph-name="yaoqing" unicode="&#xe7d9;" 
d="M509 753l-47 -48h101zM153 703h425l7 -46h-383l1 -371h620v-44h-622l-48 35v61l-62 5l64 71zM585 657l242 -1l-4 -370v0v-44l1 -3l-160 -126l272 -227v443l-68 -50l-1 61l69 1l-71 73l8 289h-295zM385 105l-298 -253l837 2l-299 251h-240zM87 327v-445l271 230zM677 368
h91v-16h-91v16v0zM417 499h351v-16h-351v16v0zM530 556h238v-24h-238v24v0zM327 573q-1 2 -3.5 4t-9 6.5t-12 6t-11.5 -1t-10 -12.5q-11 -25 6 -44l40 -41q45 40 55 57q1 2 1.5 4.5t0 9.5t-2.5 12.5t-8 10.5t-15 5v0q-10 1 -31 -17v0zM327 573z" />
    <glyph glyph-name="jinlingyingcaiwangtubiao84" unicode="&#xe6f3;" 
d="M950 335l-54 52l-28 24q-6 6 -13.5 5.5t-13 -6.5t-5 -14t6.5 -13l74 -70v-83l-404 -236l-405 236v83l57 53q6 6 6.5 14t-5 13.5t-13.5 6t-14 -5.5l-63 -59q-6 -6 -6 -14v-483q0 -8 5.5 -13.5t13.5 -5.5h848q8 0 13.5 5.5t5.5 13.5v483q0 8 -6 14zM473 663q8 0 13 6l31 28
l29 -28q6 -6 14 -5.5t13.5 6t5 13.5t-5.5 14l-43 41q-13 12 -26 0l-44 -41q-6 -6 -6 -14t5 -14q6 -6 14 -6zM855 702h-685q-8 0 -13.5 -5.5t-5.5 -13.5v-425q0 -8 5.5 -13.5t13.5 -5.5h685q8 0 14 5.5t6 13.5v425q0 8 -6 13.5t-14 5.5zM391 524q-5 -11 -18 -23
q-28 -27 -45 -37q-4 -3 -10 -3t-11 3q-51 35 -64 63q-4 7 -6 17t1.5 24.5t14.5 25.5q15 15 35 15q16 0 29 -11q25 20 54 5q23 -13 26 -38q3 -23 -6 -41zM758 351h-148q-8 0 -13.5 6t-5.5 14t5.5 13.5t13.5 5.5h148q8 0 13.5 -5.5t5.5 -13.5t-5.5 -14t-13.5 -6zM758 451h-309
q-8 0 -13.5 6t-5.5 13.5t5.5 13.5t13.5 6h309q8 0 13.5 -6t5.5 -13.5t-5.5 -13.5t-13.5 -6zM758 550h-209q-8 0 -14 5.5t-6 13.5t6 14t14 6h209q8 0 13.5 -6t5.5 -14t-5.5 -13.5t-13.5 -5.5z" />
    <glyph glyph-name="dibugouxuan" unicode="&#xe6e8;" 
d="M62 -161h899v898zM685 2l-39 -48l-157 154l44 45l108 -107l200 241l48 -40l-204 -245v0z" />
    <glyph glyph-name="yaoqing1" unicode="&#xe706;" 
d="M591 -109q-89 -14 -175 -14q-410 0 -410 112v67q0 61 81 115.5t192 75.5q5 3 11.5 8t16 22t5.5 37q-13 15 -23.5 32t-16 30.5t-9.5 25t-5 18.5l-1 6q-17 7 -26 19q-12 17 -21 47t-6 54q1 11 3 17.5t4 7.5t4 1.5t2 1.5q-20 57 -13.5 117t35.5 111q26 46 67 68.5t79 21
t69 -14.5t41 -32q43 8 72.5 -11t42.5 -53t17 -75t1 -75.5t-9 -54.5q1 0 3 -2.5t5.5 -17.5t2 -40.5t-14.5 -49.5t-25 -35l-12 -11q-2 -14 -16.5 -45.5t-36.5 -60.5q-8 -17 -6 -32q-45 -72 -45 -156q0 -71 31.5 -132.5t85.5 -102.5zM1018 126q0 -103 -72.5 -176t-175.5 -73
t-176 73t-73 176t73 176t176 73t175.5 -73t72.5 -176zM934 126l-140 121q-2 1 -5 1.5t-8.5 -4t-5.5 -15.5v-47h-151q-8 0 -13.5 -5.5t-5.5 -13.5v-75q0 -7 5.5 -12.5t13.5 -5.5h151v-47q0 -10 5 -15t9 -4l5 1z" />
    <glyph glyph-name="left-copy" unicode="&#xe60e;" 
d="M816 800l-416 -416l416 -416l-96 -96l-512 512l512 512z" />
    <glyph glyph-name="zhifuchenggong" unicode="&#xe6f4;" horiz-adv-x="1220" 
d="M220 376h460q12 0 21.5 -10t10.5 -24q0 -13 -11 -24.5t-24 -11.5h-461q-12 0 -20 11t-8 25q0 13 9.5 23.5t22.5 10.5zM220 566h460q12 0 21.5 -10t10.5 -24q0 -13 -11 -24.5t-24 -11.5h-461q-12 0 -20 11t-8 25q0 13 9.5 23.5t22.5 10.5zM690 105q0 9 2 24q-8 -8 -16 -8
h-462q-12 0 -23 12.5t-11 25.5t9.5 22.5t22.5 9.5h460q18 0 28 -17q19 74 73.5 129t128.5 76v313q0 55 -29.5 87t-87.5 32h-62q-43 -11 -43 -17q0 -33 -20.5 -60t-48.5 -27h-326q-29 0 -50.5 27t-21.5 60q0 3 -9.5 7t-19.5 7l-9 3h-67q-61 0 -84.5 -30.5t-23.5 -88.5v-699
q0 -59 26.5 -88.5t87.5 -29.5h664q16 0 30 2q-55 39 -86.5 99t-31.5 129zM340 779h215q18 0 31.5 15.5t13.5 37t-13.5 36.5t-33.5 15h-213q-19 0 -33 -15t-14 -36.5t14 -37t33 -15.5zM981 -128q-98 0 -167.5 68t-69.5 164.5t69.5 164.5t167.5 68t168 -68t70 -164.5
t-70 -164.5t-168 -68zM981 315q-89 0 -152 -61.5t-63 -148.5t63 -149t152 -62t152 62t63 149t-63 148.5t-152 61.5zM1086 195q-10 0 -17 -7v0l-118 -118l-58 58v0q-6 7 -16 7q-9 0 -16 -6.5t-7 -16.5q0 -9 7 -16v0l73 -74q2 -1 3 -2v-1h1q6 -5 14 -5q11 0 18 9l131 133v0
q7 7 7 16q0 10 -6.5 16.5t-15.5 6.5v0z" />
    <glyph glyph-name="flag" unicode="&#xe6c0;" 
d="M997 531q-97 159 -162 265q-13 21 -19 29t-14.5 8.5t-16 -7t-22.5 -27.5q-39 -48 -70 -55t-86 22q-21 12 -63.5 37t-64.5 37q-101 55 -184 55q-62 6 -132 -62q-16 -16 -5 -40q109 -233 190 -409q14 -31 42 -21q33 11 95 39q130 59 223 -13q28 -22 79 -53q59 -35 105 3
q54 44 99 97q25 29 25.5 46.5t-19.5 48.5zM86 823q-10 22 -21.5 27t-31.5 -5q-21 -10 -24.5 -21t7.5 -35q387 -873 396 -892q1 -1 2.5 -3.5t7.5 -8.5t12.5 -8.5t17 -4.5t21.5 5q38 16 22 56l-1 3v0q-323 704 -408 887z" />
    <glyph glyph-name="yizhifu" unicode="&#xe711;" 
d="M631 836h-60q0 25 -17.5 42.5t-42.5 17.5h-61q-25 0 -42.5 -17.5t-17.5 -42.5h-60v-120h301v120v0zM507.5 781q-11.5 -11 -26.5 -11q-16 0 -27 11t-11 26q0 17 11 27.5t27 10.5t27 -10.5t11 -27.5q0 -15 -11.5 -26zM446 85q0 8 0.5 14t0.5 14h-177q-25 0 -43 18t-18 43
t18 42t43 17h221q30 48 78 80q47 31 105 41h-404q-25 0 -43 17.5t-18 42.5t18 42.5t43 17.5h421q25 0 43 -17.5t18 -42.5q0 -19 -11 -34q-11 -16 -29 -22h7q44 0 82 -13q39 -13 72 -35v341q0 26 -11 49.5t-28.5 39.5t-38.5 26q-22 10 -44 10h-60v-121h-421v121h-68
q-22 0 -42.5 -12t-35.5 -31q-16 -18 -25 -40q-10 -22 -10 -42v-596q0 -24 13 -46q12 -23 31 -40q18 -17 40 -28q22 -10 40 -10h282q-24 32 -36 71q-13 40 -13 83zM918 166q-17 38 -46 67t-67.5 46t-81.5 17q-44 0 -82.5 -17t-67.5 -46t-46 -67.5t-17 -81.5q0 -44 17 -83
t46 -67.5t67 -45.5q39 -16 83 -16q43 0 81.5 16.5t67.5 45t46 67.5t17 83t-17 82zM842 120l-130 -127v0q-7 -7 -17 -7t-16 7l-76 73q-7 7 -7 16.5t7 16.5t17 7t17 -7l58 -57l113 111q7 6 17 6t17 -6.5t7 -16t-7 -16.5z" />
    <glyph glyph-name="02" unicode="&#xe60f;" 
d="M239 795q64 0 109.5 -45.5t45.5 -109.5t-45.5 -109t-109.5 -45t-109.5 45t-45.5 109t45.5 109.5t109.5 45.5v0v0zM316 655v59l-99 -88l-55 49v-59l55 -50l99 89v0zM932 273h-19h-174q-6 0 -13 6.5t-7 11.5v1q-1 46 -1 83v86q0 11 8.5 19.5t21.5 8.5q1 0 14 1t32.5 -1
t41 -10t40.5 -26q29 -30 41.5 -73t22.5 -89q0 -2 0.5 -3t0.5 -3q0 -11 -9 -12v0v0zM1006 262q-7 53 -25 108.5t-53 104.5q-20 28 -49.5 47.5t-62.5 32t-66.5 17.5t-64.5 2q-11 -1 -18 -14.5t-7 -23.5v-454q0 -17 12.5 -29.5t28.5 -12.5h17q0 24 9 45t24.5 37t36.5 25.5
t45.5 9.5t46.5 -6.5t38.5 -21t26.5 -37t10 -54.5h39q5 0 8.5 6t5.5 14t3 16t1 13q0 29 1 76q0 46 -7 99v0v0zM838 98q25 0 42.5 -18t17.5 -43t-17.5 -43t-42.5 -18t-42.5 18t-17.5 43t17.5 43t42.5 18v0v0zM190 98q-26 0 -43 -17.5t-17 -43.5q0 -24 17 -42t42.5 -18t43 18
t17.5 42q0 26 -17.5 43.5t-42.5 17.5v0v0zM431 689q7 -25 7 -52q0 -41 -16 -76.5t-42.5 -62.5t-62.5 -42.5t-76 -15.5q-41 0 -77 15.5t-62.5 42.5t-42.5 62.5t-16 76.5v9q-13 -16 -21 -36q-8 -22 -8 -44v-490q0 -18 10.5 -27.5t26.5 -9.5h21q0 60 30.5 90t88.5 30
q60 0 88.5 -32t28.5 -88h257q15 0 26 10.5t11 26.5l-2 613h-169v0zM431 689z" />
    <glyph glyph-name="chongzhi1" unicode="&#xe611;" 
d="M512 896q-138 0 -256 -69t-187 -187t-69 -256t69 -256t187 -187t256 -69t256 69t187 187t69 256t-69 256t-187 187t-256 69v0v0zM512 -64q-121 0 -224.5 60t-163.5 163.5t-60 224.5t60 224.5t163.5 163.5t224.5 60t224.5 -60t163.5 -163.5t60 -224.5t-60 -224.5
t-163.5 -163.5t-224.5 -60v0v0zM512 -64zM752 592q21 0 26 -22q0 -10 -6.5 -16.5t-16.5 -6.5h-272q-55 -71 -125 -125l-3 -3q3 -3 7 -3q171 0 304 13q-34 43 -61 70q-16 16 0 32q17 13 35 0q34 -33 125 -153q10 -22 -3 -36q-19 -12 -32 7q-7 6 -20 25q-1 2 -4.5 7t-4.5 6
q-9 0 -32 -1.5t-39 -1.5q-7 0 -18 -1.5t-14 -1.5v-186q0 -29 36 -29h64q21 -2 31 15.5t10 58.5q0 20 26 26q10 0 16 -7t6 -19q3 -68 -17.5 -97t-65.5 -21h-80q-72 0 -77 64v195q-29 -3 -96 -3q0 -192 -173 -247q-29 -25 -35 -3q-4 22 13 35q136 42 141 205h-80q-28 0 -39 16
q-5 22 16 35q72 58 135 125h-160q-23 0 -23 22q0 10 6.5 16.5t16.5 6.5h205q0 5 -10 19l-6 13q-10 20 6 32q18 9 32 -10q6 -9 29 -54h227v3v0zM752 592z" />
    <glyph glyph-name="wodeyaoqing" unicode="&#xe607;" 
d="M333 466l102 -86l76 -78l77 79l111 95q35 36 35 88t-37 89t-89 37q-60 0 -97 -46q-38 46 -98 46q-52 0 -89 -37t-37 -89q0 -60 46 -98v0zM1023 438q0 7 -1 14q-4 31 -22.5 56.5t-47.5 40.5v177q0 41 -29 70t-70 29h-228l-42 41q-29 30 -70 30t-70 -30l-41 -41h-227
q-41 0 -70 -29t-29 -70v-175q-31 -14 -51 -40t-24 -59q-1 -7 -1 -14v-439q0 -52 39 -89t94 -37h757q55 0 94 37t39 89v439v0zM149 672q0 33 24 56.5t58 23.5h565q34 0 58.5 -23.5t24.5 -56.5v-240l-368 -218l-362 216v242v0z" />
    <glyph glyph-name="qi" unicode="&#xe696;" 
d="M387 -28q-13 0 -20 11l-1 2q-2 3 -3 6l-29 104l-162 574q0 2 -1 4l-19 68q-1 4 -1 8v0q1 9 7 15t14.5 7t15.5 -4t10 -13l11 -39q44 25 95.5 40.5t89.5 15.5q42 0 89 -12q33 -9 83 -28q46 -17 92 -17q30 0 59 7.5t48.5 17t37 21.5t23 17t8.5 8q12 12 27 5t14 -23l-23 -335
q-1 -8 -6 -14q-4 -5 -11.5 -12t-29 -22.5t-45.5 -27.5t-61.5 -21.5t-75.5 -9.5q-23 0 -46 4q-21 3 -40 3q-63 0 -115 -27q-56 -29 -75 -78l33 -120l29 -105q3 -8 -1 -16t-12 -12q-4 -2 -9 -2z" />
    <glyph glyph-name="recharge" unicode="&#xe612;" 
d="M512 896q-104 0 -199 -40.5t-163.5 -109t-109 -163.5t-40.5 -199t40.5 -199t109 -163.5t163.5 -109t199 -40.5t199 40.5t163.5 109t109 163.5t40.5 199t-40.5 199t-109 163.5t-163.5 109t-199 40.5zM512 -64q-91 0 -174 35.5t-143 95.5t-95.5 143t-35.5 174t35.5 174
t95.5 143t143 95.5t174 35.5t174 -35.5t143 -95.5t95.5 -143t35.5 -174t-35.5 -174t-95.5 -143t-143 -95.5t-174 -35.5zM753 590q21 0 26 -22q-3 -21 -23 -23h-273q-46 -62 -124 -126l-4 -5q0 -2 6 -2q157 0 303 11q-32 44 -60 71q-13 16 0 32q19 16 35 0q32 -32 123 -153
q12 -21 -4 -37q-16 -11 -32 7q-10 12 -21 25q-7 7 -9 12q-28 -3 -71 -5q-20 -2 -32 -2v-186q2 -27 37 -30h64q43 -6 41 74q2 23 25 25q21 -2 23 -25q7 -133 -85 -119h-80q-71 2 -76 64v195q-43 -5 -96 -5q-2 -193 -174 -248q-23 -9 -30 10q-7 23 12 34q137 41 142 204h-80
q-30 0 -39 16q-7 18 16 37q73 57 133 126h-158q-21 0 -23 23q2 20 23 22h206q-1 1 -9 19l-7 14q-12 18 7 32q18 9 32 -10q9 -13 29 -55h227v0z" />
    <glyph glyph-name="zuo4" unicode="&#xe73b;" 
d="M63 382l448 451l84 -84l-302 -301h666v-128h-666l302 -299l-84 -84z" />
    <glyph glyph-name="fahuoyundan" unicode="&#xe703;" 
d="M957 275q-1 4 -3 7l-165 182q-10 12 -21 1.5t-1 -21.5l131 -145h-176q-15 0 -28.5 -9t-17.5 -24q-17 -51 -60 -82.5t-97.5 -31.5t-97.5 31.5t-60 82.5q-4 15 -17.5 24t-28.5 9h-174l131 145q10 11 -1 21.5t-22 -1.5l-161 -179q-15 -14 -15 -36v-216q0 -21 14.5 -35.5
t34.5 -14.5h793q20 0 34.5 14.5t14.5 35.5v216q0 14 -7 26zM246 520h102v-159q0 -20 15 -35t36 -15h239q21 0 35.5 15t14.5 35v159h103q24 0 33.5 17t-6.5 30l-273 215q-11 9 -26.5 9t-25.5 -9l-273 -215q-17 -13 -7.5 -30t33.5 -17z" />
    <glyph glyph-name="wodefahuoyundan" unicode="&#xe705;" 
d="M937 584l-157 181q-4 5 -11 5l-511 3v0q-7 0 -11 -5l-166 -190q-1 -2 -2 -5q-10 -13 -10 -29v-515q0 -21 15 -36t36 -15h787q21 0 35.5 15t14.5 36v515q0 25 -20 40zM265 743l497 -3l126 -146h-752zM707 265h-73v-112q0 -15 -11 -26t-27 -11h-167q-15 0 -26 11t-11 26
v112h-73q-17 0 -23.5 11.5t4.5 21.5l194 153q8 6 19 6t19 -6l194 -153q11 -10 4.5 -21.5t-23.5 -11.5z" />
    <glyph glyph-name="pintuan" unicode="&#xe6bf;" 
d="M778 367h-70v153h59q31 22 0 42h-84q14 16 36 61q5 18 -11 27q-18 7 -27 -9q-27 -49 -47 -79h-74q4 9 -5 25q-7 12 -16 27q-9 18 -15 27q-14 18 -32 7q-18 -14 -7 -32q18 -24 36 -54h-72q-33 -20 0 -42h52v-153h-61q-18 0 -18 -21q0 -22 18 -22h57q-9 -92 -68 -171
q-13 -18 5 -31q20 -9 36 9q58 85 72 193h121v-189q0 -22 23 -25q22 3 22 25v189h70q34 22 0 43zM663 367h-117v153h117v-153zM420 400q-11 16 -29 5q-13 -9 -16 -9q2 0 0 -1q-1 0 -4 -1v114h36q15 3 18 25q-3 20 -18 23h-36v87q0 18 -22.5 18t-22.5 -18v-87h-50
q-15 -3 -15 -23q0 -22 15 -25h50v-139q-32 -16 -61 -25q-20 -9 -18 -29q9 -23 29 -16q36 14 50 23v-140q1 -12 -9 -16t-32 1q-20 4 -24 -16q0 -23 18 -27q94 -20 92 58v160q6 2 22 13q14 12 20 14q16 13 7 31zM512 863q-97 0 -186 -38t-153 -102t-102 -153t-38 -186t38 -186
t102 -153t153 -102t186 -38t186 38t153 102t102 153t38 186t-38 186t-102 153t-153 102t-186 38zM512 -45q-116 0 -215 57.5t-156.5 156.5t-57.5 215t57.5 215t156.5 156.5t215 57.5t215 -57.5t156.5 -156.5t57.5 -215t-57.5 -215t-156.5 -156.5t-215 -57.5z" />
    <glyph glyph-name="yaoqing2" unicode="&#xe6b9;" horiz-adv-x="1047" 
d="M484 -71h-157l-28 6q-61 0 -144 14q-69 0 -103 68v83q9 36 34.5 65.5t61.5 44.5q25 10 69 27t68 28q21 6 34 24t8 38v8l-20.5 34t-27.5 54q0 8 -8 8q-30 20 -39.5 57.5t5.5 73.5v20q-14 41 -9.5 84t21.5 79.5t50.5 65t76.5 41.5h48l75 -43h14q36 7 67 -17.5t37 -64.5
q10 -68 0 -145v-20q9 -37 1.5 -70.5t-29.5 -59.5q-6 0 -20 -15q-13 -27 -31.5 -75t-24.5 -63q-46 -84 -29.5 -176t85.5 -154q6 -8 12 -14l-96 -6h-1zM767.5 389q-93.5 0 -160 -66.5t-66.5 -160t67 -160.5t160 -67t160 67t67 160.5t-67 160t-160.5 66.5zM768 17v83h-125v117
h117v90l145 -145l-137 -144v-1z" />
    <glyph glyph-name="shouye3" unicode="&#xe6f7;" 
d="M990 453l-387 403q-38 38 -91 38t-91 -38l-387 -403q-19 -19 -26.5 -39t-7 -32t5.5 -22q17 -40 66 -40h57v-310q0 -54 35 -95t87 -41h65h100v72v256v13.5v12.5t1 9.5t3 8.5t5 5.5t8.5 4t13.5 0.5h65h65q8 0 13.5 -0.5t8.5 -4t5 -5.5t3 -8.5t1 -9.5v-13v-13v-256v-72h100
h65q52 0 87 41t35 95v310h57q49 0 66 40q5 10 5.5 22t-7 32t-26.5 39v0v0zM952 384h-49h-32h-40v-374q0 -28 -16.5 -50.5t-41.5 -22.5h-101v265q0 56 -22 87t-73 31h-65h-65q-51 0 -73 -31t-22 -87v-265h-101q-25 0 -41.5 22.5t-16.5 50.5v374h-40h-32h-49q-1 0 -2 2l-1 2
q11 19 12 21l388 402q19 20 43 20q25 0 43 -20l388 -402q2 -2 12 -21l-1 -2t-2 -2v0v0zM952 384z" />
    <glyph glyph-name="fahuo" unicode="&#xe66f;" 
d="M24 764h662q9 0 15.5 -6.5t6.5 -15.5v-62l-1 -3v-405h-21v-2h-662v2h-21v470q0 9 6 15.5t15 6.5v0v0v0zM736 160q19 51 70 67q16 5 33.5 5t33.5 -5q51 -16 70 -67q4 -10 6 -21q2 -10 2 -19v-1v-1q-1 -46 -33.5 -78t-78 -32t-77.5 32t-33 78l-0.5 1l-0.5 1q0 9 2 19
q2 11 6 21v0v0zM793 118q1 -19 14.5 -32t32 -13t32 13t14.5 32v1v1q0 10 -4 19q-5 13 -18 21q-12 7 -24.5 7t-23.5 -7q-13 -8 -19 -21q-4 -9 -4 -19v-1v-1v0v0zM341 227q-11 10 -24 17h404q5 0 9 3v0.5v0.5h1q4 5 4 10v351q7 7 16 7h170q7 0 13 -5q4 -3 10 -8.5t20.5 -23.5
t25 -38t19.5 -52.5t9 -66.5v-159q5 -7 5 -15v-109q0 -9 -6 -15t-15 -6h-23v1v1q0 9 -1 19q-2 11 -5 21q-12 40 -43 67q-15 13 -33 21q-15 7 -29 10t-28.5 3t-28.5 -3t-28 -10q-18 -8 -34 -21h1.5h0.5h-2q-31 -27 -43 -67q-3 -10 -4 -21q-2 -10 -2 -19v-1v-1h-310v1v1
q0 9 -1 19q-2 11 -5 21q-12 40 -43 67v0v0zM772 448h202q-9 77 -61 125h-141v-125zM147 160q19 51 70 67q16 5 33.5 5t33.5 -5q51 -16 70 -67q4 -10 6 -21q2 -10 2 -19v-1v-1q-1 -46 -33.5 -78t-78 -32t-77.5 32t-33 78l-0.5 1l-0.5 1q0 9 2 19q2 11 6 21v0v0zM204 118
q1 -19 14.5 -32t32 -13t32 13t14.5 32v1v1q0 10 -4 19q-6 13 -18 21q-12 7 -24.5 7t-23.5 -7q-13 -8 -19 -21q-4 -9 -4 -19v-1v-1v0v0zM195 249h-0.5t-0.5 -1q-7 -3 -10 -4q-13 -7 -24 -17q-31 -27 -43 -67q-3 -9 -4 -21q-2 -11 -2 -19v-1v-1h-44q-9 0 -15 6t-6 15v109v1v0
h149z" />
    <glyph glyph-name="erweima" unicode="&#xe642;" 
d="M199 560h137v137h-137v-137zM893 354h69v-214h-69v68h-68v77h-69v69h69v-69h68v69zM688 208h137v-137h68v-68h69v-69h-137v69h-69v137h-68v-69h-77v-68h77v-69h-146v420h146v-69h-77v-145h77v68zM62 -66h411v420h-411v-420zM131 285h274v-282h-274v282zM199 71h137v137
h-137v-137zM542 834v-411h420v411h-420zM893 491h-282v274h282v-274zM62 423h411v411h-411v-411zM131 765h274v-274h-274v274zM825 697h-137v-137h137v137z" />
    <glyph glyph-name="psuccess" unicode="&#xe64a;" horiz-adv-x="1201" 
d="M680 108q0 8 2 24q-8 -8 -16 -8h-455q-12 0 -22.5 13t-10.5 26t9 22.5t21 9.5h454q18 0 27 -17q19 75 73 130.5t127 76.5v317q0 56 -29.5 88.5t-86.5 32.5h-60q-43 -12 -43 -17q0 -34 -20.5 -61t-47.5 -27h-321q-29 0 -50 27t-21 61q0 2 -9.5 6.5t-18.5 7.5l-10 3h-66
q-60 0 -83 -31t-23 -90v-707q0 -60 26 -90t86 -30h655q15 0 29 2q-54 40 -85 100.5t-31 130.5zM216 574h454q12 0 21.5 -10t10.5 -24q0 -13 -11 -24.5t-23 -11.5h-455q-12 0 -20 11t-8 25q0 13 9.5 23.5t21.5 10.5zM216 382h454q12 0 21.5 -10t10.5 -24q0 -13 -11 -24.5
t-23 -11.5h-455q-12 0 -20 11t-8 25q0 13 9.5 23.5t21.5 10.5zM335 791h212q18 0 31.5 15.5t13.5 37t-13.5 37t-33.5 15.5h-210q-19 0 -32.5 -15.5t-13.5 -37.5t13.5 -37t32.5 -15zM967 343q-97 0 -165.5 -69t-68.5 -166.5t68.5 -166.5t165.5 -69t165.5 69t68.5 166.5
t-68.5 166.5t-165.5 69zM967 -106q-88 0 -150 62.5t-62 151t62 151t150 62.5t150 -62.5t62 -151t-62 -151t-150 -62.5zM1070 199q-10 0 -16 -7h-1l-115 -120l-58 59v0q-6 7 -16 7q-9 0 -15.5 -6.5t-6.5 -16.5t7 -16v0l72 -75q1 -1 2 -3h1v0q6 -5 14 -5q11 0 18 9l129 134
q7 7 7 17t-6.5 16.5t-15.5 6.5z" />
    <glyph glyph-name="daifahuoxuanzhong" unicode="&#xe65f;" 
d="M77 170l409 -205v409l-409 205v-409zM247 690l-142 -71l408 -204l150 73zM920 618l-408 204l-207 -104l411 -202zM540 374v-408l407 204v406z" />
    <glyph glyph-name="-xhongqi" unicode="&#xe6f8;" 
d="M138 748l205 -774l51 6l-215 778zM742 753q-97 -41 -143 -41q-34 0 -68.5 12.5t-59 28t-59.5 28.5t-69 13q-23 0 -58.5 -10.5t-60.5 -20.5l-24 -10l143 -369q97 41 143 41q35 0 69.5 -13t59 -28t59 -28t68.5 -13q21 0 57 10.5t61 20.5l26 10z" />
    <glyph glyph-name="yaoqing3" unicode="&#xe708;" 
d="M437 438q28 -19 49.5 -44t25.5 -39q3 13 24.5 38.5t49.5 45.5q7 5 25.5 17.5t29.5 21t24 22t19.5 30.5t5.5 37q0 38 -14 66t-36 38.5t-46.5 9.5t-47 -19.5t-35.5 -50.5q-16 41 -47 59t-59.5 11.5t-50.5 -37t-22 -77.5q0 -21 5.5 -38t20 -31.5t23 -22t30.5 -21t26 -16.5z
M899 474h-29v60h29v-60zM810 456q0 -17 -10 -36t-24 -29l-230 -161q-14 -10 -33.5 -10t-33.5 9l-233 163q-14 9 -23.5 28t-9.5 36v275q0 17 12 29t29 12h515q17 0 29 -12t12 -29v-275v0zM153 474h-30v60h30v-60zM870 750q0 34 -24 58t-58 24h-554q-33 0 -57 -24t-24 -58
v-116q0 -17 -12 -29t-29 -12h-8q-17 0 -29 -11.5t-12 -29.5v-532q0 -34 24 -58t57 -24h734q34 0 57.5 24t23.5 58v532q0 17 -11.5 29.5t-28.5 12.5h-9q-16 0 -28 11.5t-12 28.5v116v0z" />
    <glyph glyph-name="jiameng1" unicode="&#xe638;" horiz-adv-x="1033" 
d="M983 583q-40 93 -109.5 163t-162.5 110t-199 40q-107 0 -200 -40q-92 -40 -162 -110t-110 -163t-40 -199.5t40 -199.5q40 -92 110 -162t162 -110q93 -40 200 -40q106 0 199 40t163 110q69 70 109 162q40 93 40 199.5t-40 199.5zM512 -59q-93 0 -172 34
q-81 35 -141.5 95.5t-95.5 141.5q-34 80 -34 171q0 92 34 173q35 81 95.5 141.5t141.5 95.5q80 35 172 35q91 0 172 -35t141 -95q60 -61 95 -142q34 -81 34 -173t-34 -171q-35 -81 -95 -141.5t-141 -95.5q-81 -34 -172 -34zM368 703v4h-58v-4v-112h-90v-56h90q-1 -43 -2 -75
q-1 -115 -28 -202t-80 -145l-2 -2l2 -3q23 -25 38 -43l2 -3l3 3q60 69 90 166q31 97 32 224q1 33 2 80h92q-1 -181 -9 -333q-3 -59 -43 -58q-27 0 -73 5l-5 1l1 -5q5 -27 10 -56l1 -3h3q54 -2 74 -2q37 -2 60 19q30 28 31 96q6 144 9 388v4h-150v112zM825 85v538h-251v-538
h58v65h135v-65h58zM767 568v-364h-135v364h135z" />
    <glyph glyph-name="chongzhi" unicode="&#xe639;" horiz-adv-x="1032" 
d="M511 -122q-105 0 -196 40q-92 40 -160.5 108.5t-108.5 160.5q-40 91 -40 196t40 198q40 92 108.5 160.5t160.5 108.5q91 40 196 40t198 -40q92 -40 160 -108.5t108 -161.5q40 -92 40 -197t-40 -197q-39 -91 -108 -160q-68 -69 -160 -109q-93 -39 -198 -39zM511.5 834
q-93.5 0 -174.5 -36q-82 -35 -143 -96q-61 -62 -96 -144q-35 -81 -35 -174.5t35 -174.5q35 -82 96 -143t143 -97q81 -35 174.5 -35t175.5 35q82 36 142 97q62 62 96 143q36 81 36 174.5t-36 174.5q-35 83 -96 144t-142 96q-82 36 -175.5 36zM511.5 -128q-106.5 0 -199.5 40
q-92 40 -162 110t-110 162q-40 93 -40 199t40 200q40 93 110 163t162 110q93 40 200 40q106 0 199 -40t163 -110q69 -70 109 -163t40 -200q0 -106 -41 -199q-40 -92 -109 -162t-162 -110t-199.5 -40zM511 884q-104 0 -194 -39.5t-158 -107.5q-68 -67 -108 -159
q-39 -91 -39 -195t39.5 -194t107.5 -158t158 -107q91 -40 194.5 -40t194.5 40q91 39 159 107t107 158q39 91 39 194.5t-39 194.5t-107 159.5t-159 107.5t-195 39zM511.5 -72q-94.5 0 -177 36t-144.5 98q-62 63 -98 145t-36 176.5t36 177.5t98 145t145 98q82 36 176.5 36
t177.5 -36t145 -98q61 -61 97 -145q36 -83 36 -177.5t-36 -176.5q-36 -83 -97 -145q-62 -62 -145 -98t-177.5 -36zM511.5 827q-92.5 0 -172.5 -34q-80 -35 -140.5 -95.5t-95.5 -141.5t-35 -173t35 -172t95.5 -140.5t140.5 -95.5q81 -35 172 -35q92 0 173 35t141 95
q60 61 94.5 141.5t34.5 171.5q0 92 -34.5 173t-94.5 142q-60 60 -141 95q-80 34 -172.5 34zM637 546q95 -95 152 -169l-43 -32q-22 29 -39 50q-47 -2 -87 -3v-183q0 -28 7 -36q8 -11 33 -11h59q41 0 46 31q4 25 7 81q23 -8 54 -18q-4 -41 -10 -79q-10 -57 -86 -57h-78
q-47 0 -64 20q-17 16 -17 61v190q-20 -1 -110 -4q-4 -101 -40 -158q-49 -79 -177 -123q-12 20 -31 46q123 38 165 107q31 48 34 126q-42 -2 -70 -4q-18 -1 -50 -10l-25 53q32 7 58 30q61 58 114 125h-215v45h292q-22 39 -40 65l44 24q21 -29 47 -71l-33 -18h284v-45h-312
q-58 -69 -140 -149q176 4 306 7q-37 45 -71 83zM241 100l-2 3q-13 21 -31 46l-4 5l7 2q121 38 163 105q29 46 32 118q-49 -3 -64 -4q-17 -1 -48 -9l-5 -2l-30 63l7 2q31 7 55 28q57 54 107 116h-209v56h288q-19 33 -36 57l-3 4l52 30l3 -3q24 -34 47 -72l3 -5l-20 -10h269
v-56h-314q-54 -65 -129 -139q155 4 283 7q-32 37 -65 74l-4 4l44 33l3 -3q95 -96 153 -170l4 -4l-52 -38l-3 4q-19 25 -37 48q-10 -1 -37.5 -1.5t-41.5 -1.5v-178q0 -26 5 -32v-1q7 -9 29 -9h59q36 0 41 27q4 25 6 80l1 7l6 -2q23 -9 54 -19l4 -1v-4q-4 -41 -11 -79
q-10 -61 -91 -61h-78q-48 0 -67 21q-18 18 -18 65v184q-67 -2 -101 -4q-4 -98 -40 -155q-50 -80 -180 -125zM221 149q13 -19 24 -37q124 44 171 120q36 56 39 155v4l5 1q14 0 50.5 1.5t59.5 2.5h5v-195q0 -43 16 -58v0q16 -18 60 -18h78q72 0 81 53q6 34 10 74q-28 9 -44 15
q-2 -50 -6 -75q-6 -35 -51 -35h-59q-27 0 -37 13q-8 9 -8 39v188h5q39 2 87 3h2l2 -2q17 -22 36 -46l35 26q-56 70 -146 162l-28 -21q34 -38 68 -79l7 -8h-10q-127 -3 -306 -7h-13l9 9q81 78 140 148l1 1h309v36h-584v-36h220l-6 -8q-55 -69 -115 -125q-24 -22 -54 -30
l21 -44q29 8 46 9q29 2 71 4h5v-5q-3 -78 -34 -128q-44 -69 -162 -107zM483 687q16 -24 37 -60l2 -3l37 20q-23 37 -41 63z" />
    <glyph glyph-name="wode" unicode="&#xe63a;" 
d="M974 -76q-6 97 -52 183t-122 146l-7 4q-9 6 -19 6q-18 0 -27.5 -8t-9.5 -22q0 -18 13 -29v0l6 -4q129 -92 144 -277v-1q0 -1 -0.5 -2t-0.5 -2q0 -15 11 -26t27 -11q15 0 26 10t11 25h1zM854 551q0 92 -46 170t-124.5 123t-171.5 45t-171.5 -45t-124.5 -123t-46 -170
q0 -75 32 -142.5t90 -115.5q-104 -56 -169 -156t-73 -218l-1 -6v-2q0 -14 9.5 -23t22.5 -9t22.5 9t9.5 23v1v0l1 6q8 112 73.5 202.5t167.5 131.5q83 -39 157 -39q77 0 148 34l34 20l29 19q62 48 96.5 117.5t34.5 147.5zM512 282q-113 0 -193 79t-80 190.5t80 190.5t193 79
t193 -79t80 -190.5t-80 -190.5t-193 -79z" />
    <glyph glyph-name="shouye" unicode="&#xe63b;" 
d="M1010 416l-447 442q-5 5 -14 11q-18 12 -37 12q-21 0 -38 -12q-10 -7 -14 -12l-446 -441q-12 -12 -12 -28t12 -28q23 -22 54 9l30 30l415 402l3 -2l440 -433q21 -14 35 -14q11 0 19 8q12 12 12 28.5t-12 27.5zM843 439q-14 0 -23.5 -9.5t-9.5 -23.5v-412
q0 -17 -12.5 -28.5t-29.5 -11.5h-102v229q0 42 -30.5 72t-73.5 30h-100q-43 0 -73.5 -30t-30.5 -72v-229h-102q-17 0 -29.5 11.5t-12.5 28.5v412q0 14 -9.5 23.5t-23.5 9.5t-24 -9.5t-10 -23.5v-417q0 -42 30.5 -72t73.5 -30h174v291q0 17 12.5 29t29.5 12h90q17 0 29 -12
t12 -29v-291h175q43 0 73.5 30t30.5 73v416q0 14 -10 23.5t-24 9.5z" />
  </font>
</defs>
</svg>
