<?xml version="1.0" standalone="no"?>
<!DOCTYPE svg PUBLIC "-//W3C//DTD SVG 1.1//EN" "http://www.w3.org/Graphics/SVG/1.1/DTD/svg11.dtd" >
<svg xmlns="http://www.w3.org/2000/svg">
<metadata>
Created by FontForge 20120731 at Mon Jul 10 10:51:09 2017
 By admin
</metadata>
<defs>
<font id="iconfont" horiz-adv-x="1024" >
  <font-face 
    font-family="iconfont"
    font-weight="500"
    font-stretch="normal"
    units-per-em="1024"
    panose-1="2 0 6 3 0 0 0 0 0 0"
    ascent="896"
    descent="-128"
    x-height="792"
    bbox="-0.363636 -212 6142.94 896"
    underline-thickness="0"
    underline-position="0"
    unicode-range="U+0078-E7A2"
  />
<missing-glyph 
 />
    <glyph glyph-name=".notdef" 
 />
    <glyph glyph-name=".notdef" 
 />
    <glyph glyph-name=".null" horiz-adv-x="0" 
 />
    <glyph glyph-name="nonmarkingreturn" horiz-adv-x="341" 
 />
    <glyph glyph-name="x" unicode="x" horiz-adv-x="1001" 
d="M281 543q-27 -1 -53 -1h-83q-18 0 -36.5 -6t-32.5 -18.5t-23 -32t-9 -45.5v-76h912v41q0 16 -0.5 30t-0.5 18q0 13 -5 29t-17 29.5t-31.5 22.5t-49.5 9h-133v-97h-438v97zM955 310v-52q0 -23 0.5 -52t0.5 -58t-10.5 -47.5t-26 -30t-33 -16t-31.5 -4.5q-14 -1 -29.5 -0.5
t-29.5 0.5h-32l-45 128h-439l-44 -128h-29h-34q-20 0 -45 1q-25 0 -41 9.5t-25.5 23t-13.5 29.5t-4 30v167h911zM163 247q-12 0 -21 -8.5t-9 -21.5t9 -21.5t21 -8.5q13 0 22 8.5t9 21.5t-9 21.5t-22 8.5zM316 123q-8 -26 -14 -48q-5 -19 -10.5 -37t-7.5 -25t-3 -15t1 -14.5
t9.5 -10.5t21.5 -4h37h67h81h80h64h36q23 0 34 12t2 38q-5 13 -9.5 30.5t-9.5 34.5q-5 19 -11 39h-368zM336 498v228q0 11 2.5 23t10 21.5t20.5 15.5t34 6h188q31 0 51.5 -14.5t20.5 -52.5v-227h-327z" />
    <glyph glyph-name="xuanze" unicode="&#xe61d;" 
d="M490.5 769q-99.5 0 -190.5 -38.5t-156.5 -104.5t-104.5 -157t-39 -190.5t39 -190.5t104.5 -156.5t156.5 -104.5t190.5 -39t190.5 39t157 104.5t104.5 156.5t38.5 190.5t-38.5 190.5t-104.5 157t-157 104.5t-190.5 38.5zM760 493l-254 -441l-0.5 -1t-0.5 -2
q-14 -24 -43 -21q-9 1 -16 6q-1 0 -2.5 1.5l-1.5 1.5l-163 125q-15 9 -19.5 26t4 32t25.5 19.5t33 -3.5l133 -102l231 401q9 16 26 20.5t32.5 -4.5t20 -26t-4.5 -32z" />
    <glyph glyph-name="wuliu" unicode="&#xe63f;" 
d="M1008 302q-3 35 -25 60l-103 141l-38 84v0q-26 51 -59 50h-44q-7 0 -12.5 -5t-5.5 -13t5.5 -13t12.5 -5h44v0q12 -3 26 -30l39 -85q0 -1 1 -3l105 -143q0 -1 1 -2q14 -14 17 -39v-174h-124q-8 0 -13.5 -6t-4.5 -14v-2q0 -18 -13 -30.5t-30.5 -12.5t-30 12.5t-13.5 30.5
q1 1 1 2q0 8 -5.5 14t-13.5 6h-33v549v2v4q-1 7 -6.5 11.5t-12.5 4.5h-632q-12 0 -20.5 -8.5t-8.5 -20.5v-550q0 -12 8.5 -20.5t20.5 -8.5h141q5 -28 27 -46.5t51 -18.5t51 18.5t28 46.5h196h1q39 2 63 -19q6 -5 13.5 -4.5t12.5 6t4.5 13t-5.5 12.5q-35 31 -90 29h-212
q-8 0 -13.5 -6t-5.5 -14q0 -1 1 -2q-1 -18 -13.5 -30.5t-30 -12.5t-30.5 12.5t-13 30.5v2q1 8 -4.5 14t-13.5 6h-151v534h608v-553q0 -8 5.5 -13.5t13.5 -4.5h5h28q6 -28 28 -46.5t51 -18.5t51 18.5t27 46.5h114q12 0 20.5 8.5t8.5 20.5v183v2zM804 474q4 0 7 1q7 4 10 11
t0 14l-27 57q-3 7 -10 10t-14 -0.5t-9.5 -10.5t0.5 -14l26 -57q5 -11 17 -11z" />
    <glyph glyph-name="tuihuo" unicode="&#xe620;" 
d="M512 -147q-124 0 -230 64q-12 7 -15 19.5t4 23.5t19.5 14t23.5 -4q91 -55 198 -55q105 0 193.5 51.5t140 140t51.5 193t-51.5 193t-140 140t-193 51.5t-193 -51.5t-140 -140t-51.5 -192.5q0 -115 62 -210q7 -11 4.5 -23.5t-13.5 -19.5t-23.5 -4.5t-19.5 13.5
q-72 111 -72 244q0 89 33.5 170.5t97 145t145 97t171 33.5t171 -33.5t144.5 -97t97 -145t34 -171t-34 -171t-97 -144.5t-144.5 -97t-171.5 -34zM550 41q-143 0 -197 77q-16 -33 -42 -54q-17 -13 -30 -20t-21 -7q-5 2 -13 7.5t-8 14.5q0 5 4.5 11t15.5 12h-1q68 38 68 90v179
q0 7 -5 7h-61q-20 0 -20 20q0 11 4 17.5t16 6.5h72q12 0 19.5 -1.5t11.5 -6.5t5.5 -14t1.5 -25v-177q9 -44 53 -69t116 -25h226q21 0 21 -21.5t-21 -21.5h-215v0zM398 468q0 -9 -7.5 -16t-15.5 -7q-9 0 -25 15q-8 8 -17 16t-20 17t-19.5 15.5t-14.5 9.5q-8 5 -12 10.5
t-4 10.5q2 8 6 15.5t15 7.5q10 0 25 -11q8 -6 19.5 -15t25.5 -21v0q31 -25 37 -31q7 -8 7 -16zM721 243q-10 -8 -22.5 -17t-28.5 -19q4 -4 8.5 -8t8.5 -8q26 -24 40 -37q15 -13 18 -16q5 -5 7.5 -10.5t2.5 -9.5q0 -9 -8 -16q-7 -6 -15 -6t-15 8v0q-16 15 -32 31t-33 31
q-31 29 -70 64q-39 36 -85 77h-32v-147q0 -7 1 -7q2 0 14 4t26 8q16 6 31 12q15 5 22 10q20 9 30 9t14 -8v0q4 -7 4 -12q0 -4 -1 -6.5t-5.5 -6.5t-12 -8.5t-21.5 -11.5q-12 -5 -27 -11q-15 -5 -34 -11q-38 -13 -52 -13q-17 0 -26 14q-6 11 -6 34v346q0 28 9.5 38t35.5 10
h227q26 0 36.5 -10.5t10.5 -37.5v-146q0 -27 -10.5 -38t-36.5 -11h-135q22 -20 41.5 -36.5t38.5 -34.5q18 11 36 25.5t33 29.5q10 10 18 11.5t13.5 -2t8 -9.5t2.5 -8q0 -15 -29 -40zM699 449v48q0 10 -8 10h-220q-4 0 -5 -2t-1 -8v-48h234zM699 408h-234v-58h226q8 0 8 10
v48z" />
    <glyph glyph-name="cshy-rmb2" unicode="&#xe62c;" 
d="M606 498l-59 -108q-23 -44 -28 -58h-1q-16 35 -88 166h-55l103 -176h-85v-39h99v-54h-99v-39h99v-78h49v78h95v39h-95v54h95v39h-81l103 176h-52zM887 309l67 154l-73 -18q-44 111 -143 180.5t-222 69.5q-106 0 -196 -52.5t-142.5 -143t-52.5 -197t52.5 -196.5
t142.5 -141.5t196 -51.5q121 0 219.5 66.5t142.5 173.5h-45q-43 -90 -128 -145t-189 -55q-95 0 -176 47t-128 128t-47 176t47 176t128 128t176 47q109 0 197.5 -61t128.5 -159l-86 -21z" />
    <glyph glyph-name="sousuo" unicode="&#xe621;" 
d="M946 -14l-132 228q62 40 98 105.5t36 142.5q0 122 -86.5 209t-209 87t-209 -87t-86.5 -209.5t86.5 -209t209.5 -86.5q62 0 119 25l133 -229q5 -8 14 -11t17.5 2t11 14.5t-1.5 18.5zM653 214q-103 0 -176 72.5t-73 175.5t73 175.5t176 72.5t175.5 -72.5t72.5 -175.5
t-72.5 -175.5t-175.5 -72.5zM87 687h257q6 0 10 4t4 10v19q0 6 -4 10t-10 4h-257q-6 0 -10 -4t-4 -10v-19q0 -6 4 -10t10 -4zM344 367h-257q-6 0 -10 -4t-4 -10v-19q0 -6 4 -10t10 -4h257q6 0 10 4t4 10v19q0 6 -4 10t-10 4zM344 24h-257q-6 0 -10 -4t-4 -9v-20q0 -6 4 -10
t10 -4h257q6 0 10 4t4 10v20q0 5 -4 9t-10 4z" />
    <glyph glyph-name="wuxing" unicode="&#xe64b;" horiz-adv-x="6144" 
d="M1007 442l-189 -163q-18 -19 -14 -45l45 -263q5 -32 -17 -48q-15 -11 -33 -11q-13 0 -25 6l-238 130q-24 13 -47 0l-228 -130q-30 -16 -58 5q-31 22 -27 48l55 268q4 26 -15 45l-198 158q-25 24 -14.5 57t44.5 38l258 46q27 4 38 28l119 254q15 31 49 31t50 -31l114 -254
q12 -24 38 -28l263 -46q15 -2 27 -12.5t17 -25.5q11 -33 -14 -57v0zM2286 442l-189 -163q-18 -19 -14 -45l45 -263q5 -32 -17 -48q-15 -11 -33 -11q-13 0 -25 6l-238 130q-24 13 -47 0l-228 -130q-30 -16 -58 5q-31 23 -27 48l55 268q4 27 -15 45l-198 158q-25 24 -14.5 57
t44.5 38l258 46q27 4 38 28l119 254q15 31 49 31t50 -31l114 -254q12 -24 38 -28l263 -46q15 -2 27 -12.5t17 -25.5q10 -32 -14 -57v0zM3566 442l-189 -163q-18 -19 -14 -45l45 -263q5 -32 -17 -48q-15 -11 -33 -11q-13 0 -25 6l-238 130q-24 13 -47 0l-228 -130
q-30 -16 -58 5q-31 23 -27 48l55 268q4 27 -15 45l-198 158q-25 24 -14.5 57t44.5 38l258 46q27 4 38 28l119 254q15 31 49 31t50 -31l114 -254q12 -24 38 -28l263 -46q15 -2 27 -12.5t17 -25.5q10 -32 -14 -57v0zM4846 442l-189 -163q-18 -19 -14 -45l45 -263
q5 -32 -17 -48q-15 -11 -33 -11q-13 0 -25 6l-238 130q-24 13 -47 0l-228 -130q-30 -16 -58 5q-31 23 -27 48l55 268q4 27 -15 45l-198 158q-25 24 -14.5 57t44.5 38l258 46q27 4 38 28l119 254q15 31 49 31t50 -31l114 -254q12 -24 38 -28l263 -46q15 -2 27 -12.5t17 -25.5
q10 -32 -14 -57v0zM6126 442l-189 -163q-18 -19 -14 -45l45 -263q5 -32 -17 -48q-15 -11 -33 -11q-13 0 -25 6l-238 130q-24 13 -47 0l-228 -130q-30 -16 -58 5q-31 23 -27 48l55 268q4 27 -15 45l-198 158q-25 24 -14.5 57t44.5 38l258 46q27 4 38 28l119 254q15 31 49 31
t50 -31l114 -254q12 -24 38 -28l263 -46q15 -2 27 -12.5t17 -25.5q10 -32 -14 -57v0z" />
    <glyph glyph-name="daifukuan" unicode="&#xe7a2;" 
d="M779 1h-602q-47 0 -80 33.5t-33 79.5v540q0 46 33 79.5t80 33.5h602q47 0 80 -33.5t33 -79.5v-89q0 -8 -5.5 -13.5t-13.5 -5.5t-13.5 5.5t-5.5 13.5v89q0 30 -22 52t-53 22h-602q-31 0 -52.5 -22t-21.5 -52v-540q0 -30 21.5 -52t52.5 -22h602q31 0 53 22t22 52v105
q0 8 5.5 14t13.5 6t13.5 -6t5.5 -14v-105q0 -46 -33 -79.5t-80 -33.5v0zM779 1zM878 264h-271q-33 0 -57 24t-24 57v92q0 34 24 57.5t57 23.5h271q34 0 57.5 -23.5t23.5 -57.5v-92q0 -33 -23.5 -57t-57.5 -24v0zM607 480q-17 0 -29.5 -12.5t-12.5 -30.5v-92
q0 -17 12.5 -29.5t29.5 -12.5h271q18 0 30.5 12.5t12.5 29.5v92q0 18 -12.5 30.5t-30.5 12.5h-271v0zM607 480zM657 354q-15 0 -25.5 11t-10.5 26t10.5 26t25.5 11t26 -11t11 -26t-11 -26t-26 -11v0zM657 393q-2 0 -2 -2q0 -1 0.5 -1.5t1.5 -0.5q2 0 2 2t-2 2v0zM657 393z
" />
    <glyph glyph-name="daipingjia" unicode="&#xe643;" 
d="M145 -45v30l5 1q23 0 25 -1q13 -1 22 14q3 5 10.5 18t11.5 20q7 11 3 25q-20 75 -42 157q-1 5 1 9q95 165 335 580l3 5l1 -1h1l1 -1h1l1 -1l1 -1h1l1 -1h1l1 -1h1l1 -1l1 -1h1l1 -1h1l1 -1h1l1 -1l1 -1h1l1 -1h1l1 -1l1 -1h1l1 -1h1l1 -1h1l1 -1l1 -1h1l1 -1h1l1 -1h1
l1 -1l1 -1h1l1 -1h1l1 -1h1l1 -1l1 -1h1l1 -1h1l1 -1l1 -1h1l1 -1h1l1 -1h1l1 -1l1 -1h1l1 -1h1l1 -1h1l1 -1l1 -1h1l1 -1h1l1 -1h1l1 -1l1 -1h1l1 -1h1l1 -1l2 -1l1 -1h1l1 -1h1l1 -1h1l1 -1l1 -1h1l1 -1h1l1 -1h1l1 -1l1 -1h1l1 -1h1l1 -1h1l1 -1l1 -1h1l1 -1h1l1 -1l1 -1
h1l1 -1h1l1 -1h1l1 -1l1 -1h1l1 -1h1l1 -1h1l1 -1l1 -1h1l1 -1h1l1 -1h1l1 -1l1 -1h1l1 -1h1l1 -1l1 -1h1l1 -1h1l1 -1h1l1 -1l1 -1h1l1 -1h1l1 -1h1l1 -1l1 -1h1l1 -1h1l1 -1h1l1 -1l1 -1h1l1 -1h1l1 -1l1 -1h1l1 -1h1l1 -1h1l1 -1l1 -1h1l1 -1h1l1 -1h1l1 -1l1 -1h1l1 -1
h1l1 -1h1l1 -1l1 -1h1l1 -1h1l1 -1l1 -1h1l1 -1h1l1 -1h1l1 -1l1 -1h1l1 -1h1l1 -1h1l1 -1l1 -1h1l1 -1h1l1 -1h1l1 -1l1 -1h1l1 -1h1l1 -1l1 -1h1l1 -1h1l1 -1h1l1 -1l1 -1h1l1 -1h1l1 -1h1l1 -1l1 -1h1l1 -1h1l1 -1l1 -1h1l1 -1h1l1 -1h1l1 -1l1 -1h1l1 -1h1l1 -1h1l1 -1
l1 -1h1l1 -1h1l1 -1h1l1 -1l1 -1l-2 -5q-244 -421 -335 -579q-3 -6 -9 -7q-26 -7 -78.5 -21t-79.5 -21q-8 -2 -17 -14q-1 -1 -2.5 -4l-2.5 -5q-3 -4 -3 -16q0 -3 5 -7t8 -4h4h618h7v-31h-736v0zM654 539q-1 8 -2 9q-6 7 -11 10q-13 7 -75 43q-68 40 -83 48q-9 5 -17 1
q-6 -4 -10 -12q-62 -105 -218 -377q-8 -14 3 -24q3 -4 8 -7q4 -2 28 -16q105 -60 128 -74q10 -5 17 0q6 4 11 13q95 164 217 375q0 1 4 11zM670 580q9 0 17 13q16 24 29 50q4 7 0 15q-2 5 -10 10q-56 33 -160 92q-1 1 -6 2q-11 3 -19 -11q-17 -27 -29 -50q-4 -7 0 -16
q2 -5 12 -11q65 -37 155 -89q0 -1 11 -5zM269 75l10 1q59 16 77 21q8 2 12 11q4 6 -1 13q-3 6 -12 11q-59 34 -99 57q-8 5 -15 2.5t-11 -11.5q-1 -4 1 -14q3 -13 21 -77q3 -13 17 -14z" />
    <glyph glyph-name="coupon" unicode="&#xe619;" 
d="M1024 482v206q0 27 -18.5 45.5t-45.5 18.5h-176q7 0 11.5 -4.5t4.5 -11.5t-4.5 -11.5t-11.5 -4.5t-11.5 4.5t-4.5 11.5t4.5 11.5t11.5 4.5h-720q-27 0 -45.5 -18.5t-18.5 -45.5v-208q40 0 68 -28t28 -68t-28 -68t-68 -28v-208q0 -27 18.5 -45.5t45.5 -18.5h720
q-7 0 -11.5 4.5t-4.5 11.5t4.5 11.5t11.5 4.5t11.5 -4.5t4.5 -11.5t-4.5 -11.5t-11.5 -4.5h176q27 0 45.5 18.5t18.5 45.5v210q-40 0 -68 28t-28 68t28 68t68 28v0zM640 464v-64h-160v-64h160v-64h-160v-96h-64v96h-160v64h160v64h-160v64h64l-64 96h64l64 -96h128l64 96h64
l-64 -96h64zM784 80q-7 0 -11.5 4.5t-4.5 11.5t4.5 11.5t11.5 4.5t11.5 -4.5t4.5 -11.5t-4.5 -11.5t-11.5 -4.5zM784 144q-7 0 -11.5 4.5t-4.5 11.5t4.5 11.5t11.5 4.5t11.5 -4.5t4.5 -11.5t-4.5 -11.5t-11.5 -4.5zM784 208q-7 0 -11.5 4.5t-4.5 11.5t4.5 11.5t11.5 4.5
t11.5 -4.5t4.5 -11.5t-4.5 -11.5t-11.5 -4.5zM784 272q-7 0 -11.5 4.5t-4.5 11.5t4.5 11.5t11.5 4.5t11.5 -4.5t4.5 -11.5t-4.5 -11.5t-11.5 -4.5zM784 336q-7 0 -11.5 4.5t-4.5 11.5t4.5 11.5t11.5 4.5t11.5 -4.5t4.5 -11.5t-4.5 -11.5t-11.5 -4.5zM784 400q-7 0 -11.5 4.5
t-4.5 11.5t4.5 11.5t11.5 4.5t11.5 -4.5t4.5 -11.5t-4.5 -11.5t-11.5 -4.5zM784 464q-7 0 -11.5 4.5t-4.5 11.5t4.5 11.5t11.5 4.5t11.5 -4.5t4.5 -11.5t-4.5 -11.5t-11.5 -4.5zM784 528q-7 0 -11.5 4.5t-4.5 11.5t4.5 11.5t11.5 4.5t11.5 -4.5t4.5 -11.5t-4.5 -11.5
t-11.5 -4.5zM784 592q-7 0 -11.5 4.5t-4.5 11.5t4.5 11.5t11.5 4.5t11.5 -4.5t4.5 -11.5t-4.5 -11.5t-11.5 -4.5zM784 656q-7 0 -11.5 4.5t-4.5 11.5t4.5 11.5t11.5 4.5t11.5 -4.5t4.5 -11.5t-4.5 -11.5t-11.5 -4.5z" />
    <glyph glyph-name="ai-mark" unicode="&#xe667;" horiz-adv-x="1025" 
d="M513 857q-20 0 -31 -12q-11 -11 -17 -28l-118 -271l-315 -28q-11 -2 -20 -10q-10 -9 -12 -23q-2 -13 7 -27t21 -25l11 -10l26 -22q25 -22 36 -30l40 -34q35 -30 108 -92l-34 -142q-7 -26 -14 -54q-8 -31 -12 -48q-5 -23 -9 -37l-5 -20q-2 -9 2 -17.5t13 -14.5q8 -6 19 -8
h5q8 0 16 4q5 2 20 10q12 6 35 20q12 7 46 26q31 18 50 29q53 29 132 75l266 -153l15 -6q10 -3 15 -3q15 0 27 6q13 7 10 27q-1 3 -4 20l-8 38q-5 24 -10 49q-4 23 -11 55q-17 82 -31 145l212 188q14 16 22 26t8 24q0 16 -8 23t-28 12l-316 29l-114 271q-2 4 -6 11
q-4 6 -9 12t-12 10q-8 5 -18 5z" />
    <glyph glyph-name="z-new" unicode="&#xe672;" 
d="M840 806q8 0 13.5 -5.5t5.5 -13.5v-806q0 -13 -12 -18l-335 157l-335 -157q-12 5 -12 18v806q0 8 5.5 13.5t13.5 5.5h656zM840 842h-656q-23 0 -39.5 -16t-16.5 -39v-806q0 -23 16.5 -39t39.5 -16l328 153l328 -153q23 0 39.5 16t16.5 39v806q0 23 -16.5 39t-39.5 16v0z
M654 250q-4 0 -9 2l-133 70l-133 -70q-11 -6 -20 1t-7 18l25 149l-108 105q-8 8 -4.5 19t14.5 13l150 21l66 135q6 11 17 11t17 -11l66 -135l150 -21q11 -2 14.5 -13t-4.5 -19l-108 -105l25 -149q2 -11 -7 -18q-5 -3 -11 -3zM512 361q5 0 9 -2l109 -57l-21 121q-2 10 5 16
l88 86l-122 18q-9 2 -13 10l-55 111l-55 -111q-4 -8 -13 -10l-122 -18l88 -86q7 -6 5 -16l-21 -121l109 57q4 2 9 2zM531 183q0 -7 -5.5 -12.5t-13.5 -5.5h-131q-8 0 -13.5 5.5t-5.5 12.5v0q0 8 5.5 13.5t13.5 5.5h131q8 0 13.5 -5.5t5.5 -13.5v0zM662 183q0 -7 -5.5 -12.5
t-13.5 -5.5h-49q-7 0 -12.5 5.5t-5.5 12.5v0q0 8 5.5 13.5t12.5 5.5h49q8 0 13.5 -5.5t5.5 -13.5v0z" />
    <glyph glyph-name="gerenzhongxin" unicode="&#xe675;" 
d="M128 51q0 109 60 199t158 134q89 -45 166 -45q84 0 166 51q98 -43 158 -133.5t60 -198.5q0 -33 -42.5 -59t-110 -39.5t-149.5 -20t-164 -0.5t-149.5 18.5t-110 37.5t-42.5 56v0zM691 454q-40 -40 -83 -57q-11 -2 -30.5 -7.5t-35.5 -8.5t-30 -3t-31.5 3t-39.5 8.5t-31 7.5
q-43 17 -84 57q-34 26 -57 84q-19 48 -19 96t19 96q17 42 57 83q52 38 84 51q48 19 102 19q58 0 96 -19q45 -22 83 -51q41 -41 58 -83q19 -48 19 -96t-19 -96q-23 -58 -58 -84v0zM691 454z" />
    <glyph glyph-name="xiaoxi" unicode="&#xe629;" 
d="M831 782h-638q-28 0 -48 -20t-20 -48v-523q0 -29 20 -49t48 -20h137v-113q0 -10 8.5 -18t18.5 -8v0q12 -2 24 10l129 129h321q28 0 48 20t20 49v523q0 28 -20 48t-48 20zM853 213q0 -19 -13 -32t-32 -13h-312h-4q-1 -1 -8 -7l-109 -109v93q0 9 -6.5 16t-15.5 7h-137
q-19 0 -32 13t-13 32v478q0 19 13 32.5t32 13.5h592q19 0 32 -13.5t13 -32.5v-478zM694 464zM649 463.5q0 18.5 13 32t32 13.5t32.5 -13.5t13.5 -32t-13.5 -32t-32.5 -13.5t-32 13.5t-13 32zM512 464zM466 463.5q0 18.5 13.5 32t32.5 13.5t32.5 -13.5t13.5 -32t-13.5 -32
t-32.5 -13.5t-32.5 13.5t-13.5 32zM330 464zM284 463.5q0 18.5 13.5 32t32.5 13.5t32 -13.5t13 -32t-13 -32t-32 -13.5t-32.5 13.5t-13.5 32z" />
    <glyph glyph-name="weibiaoti2fuzhi02" unicode="&#xe61f;" 
d="M352 250h-38v108h44v-108h-6zM314 518h44v-108h-44v108zM704 365h-70h-7h-6v-7v-6q0 -6 13 -6h70q5 0 9 -4t4 -9v-19q0 -5 -4 -9t-9 -4h-19h-19h-20h-12q-7 0 -7 -13v-45v-6q0 -5 -0.5 -6t-5.5 -1h-26q-5 0 -9 4t-4 9v19v26v6h-6h-70q-5 0 -9 4t-4 9v7v6v13q6 6 6 0h13
h19h32h13v0v6v19q0 7 -13 7h-64h-6v6v7v12v13q3 0 6 3.5t7 3.5h19h13h12q5 0 6 0.5t1 5.5q0 6 -7 19q-4 0 -9 3.5t-8.5 7t-8 9t-6.5 6.5q-6 6 -15.5 19t-16.5 19q-9 19 0 19q4 0 7 3.5t6 3.5t6.5 3t6.5 3q9 9 19 -13l13 -12q13 -13 19 -26q7 0 19 -13q3 -3 4.5 -6l2.5 -5v-2
q0 -2 1.5 -4t3.5 -2h1h13q6 6 6 13q13 13 19.5 25.5t19.5 25.5q2 2 4 5.5t4 5.5t5 2q6 6 6 13h13q3 0 6 -3.5t7 -3.5q2 0 4 -1.5t2 -3.5v-1q13 -13 6.5 -19.5t-12.5 -19.5q-4 -3 -10 -12.5t-10 -12.5q-12 -26 -19 -32q-2 -3 -4 -6.5t-4 -5t-5 -1.5v-6h13h45q5 0 5.5 -1
t0.5 -6l7 -6v-26q0 -6 -13 -6zM915 525v128h-557v-64h-44v64h-205v-122q40 -25 64.5 -63t24.5 -84t-24.5 -84t-64.5 -63v-122h205v64h44v-64h564v128q-96 54 -96 141q0 85 89 141zM960 282v-64v-77q0 -29 -21 -50t-49 -21h-756q-28 0 -49 21t-21 50v77v64q45 11 70 44
q20 39 20 58q0 29 -20 58q-36 36 -70 44v64v77q0 29 21 50t49 21h756q28 0 49 -21t21 -50v-77v-64q-19 -4 -36.5 -17t-27.5 -27q-1 -2 -5.5 -10.5t-6.5 -13.5t-4.5 -13t-2.5 -14.5t2.5 -14.5t4.5 -13t6.5 -13.5t5.5 -10.5q18 -46 64 -57z" />
    <glyph glyph-name="xiaoxi1" unicode="&#xe67d;" 
d="M513 894q-104 0 -199 -36.5t-163.5 -97.5t-109.5 -145t-41 -177q0 -110 51.5 -205t143.5 -157q1 -1 -12 -202v0l206 121q59 -13 120 -13q105 0 200 36.5t164 97.5t110 145t41 177t-40.5 177t-109 145t-163 97.5t-198.5 36.5zM263.5 372q-26.5 0 -45 18.5t-18.5 45
t18.5 45.5t45 19t45 -19t18.5 -45.5t-18.5 -45t-45 -18.5zM512 372q-26 0 -45 18.5t-19 45t19 45.5t45 19t45 -19t19 -45.5t-19 -45t-45 -18.5zM760.5 372q-26.5 0 -45 18.5t-18.5 45t18.5 45.5t45 19t45 -19t18.5 -45.5t-18.5 -45t-45 -18.5z" />
    <glyph glyph-name="shezhi" unicode="&#xe61c;" 
d="M644 -21q-25 0 -41 18q-16 17 -42.5 35t-48.5 18q-23 0 -49.5 -18t-41.5 -34q-16 -18 -41 -18q-11 0 -21 5h-1l-107 60l-1 1q-14 10 -19 27.5t2 33.5q10 23 10 43q0 47 -33 80t-80 33h-4v0q-14 0 -24 11t-13 30q-10 48 -10 85t10 85q3 19 13.5 30t23.5 10h4q47 0 80 33.5
t33 79.5q0 22 -10 44q-7 16 -2 33.5t19 27.5l2 1l112 62h1q10 4 21 4q25 0 41 -16q15 -17 41 -34t48 -17t47.5 17t41.5 33t40 16q12 0 21 -4l2 -1l108 -60l1 -1q15 -10 20 -27.5t-2 -33.5q-10 -23 -10 -44q0 -46 33 -79.5t80 -33.5h3q14 1 24.5 -10t13.5 -30q9 -48 9 -85
t-9 -85q-3 -19 -13.5 -30t-24.5 -11h-3q-47 0 -80 -33t-33 -80q0 -21 10 -43q7 -16 2 -33.5t-20 -27.5l-1 -1l-110 -61l-1 -1q-10 -4 -21 -4zM641 31q1 -1 3 -1v0l103 57q-13 33 -13 63q0 66 45 113.5t110 50.5q8 45 8 75t-8 75q-65 3 -110 50.5t-45 112.5q0 31 13 64
l-101 56v0h-1q-2 0 -3 -1q-16 -16 -38 -31q-47 -34 -88 -34t-89 34q-22 16 -37 32q-2 1 -4 1h-1l-105 -57q14 -33 14 -64q0 -65 -45 -112.5t-110 -50.5q-8 -45 -8 -75t8 -75q65 -3 110 -50.5t45 -113.5q0 -30 -14 -63l100 -55v0h3q16 18 38 34q49 35 91 35t90 -36
q23 -16 39 -34zM512 239q-62 0 -106 44t-44 106.5t44 106.5t106 44t106 -44t44 -106.5t-44 -106.5t-106 -44zM512 489q-41 0 -70 -29t-29 -70.5t29 -70.5t70 -29t70 29t29 70.5t-29 70.5t-70 29z" />
    <glyph glyph-name="houtui2" unicode="&#xe622;" 
d="M959 440h-682l321 313l-79 78l-453 -447l454 -447l77 77l-320 318h682v108z" />
    <glyph glyph-name="yichengtuan" unicode="&#xe67c;" 
d="M378 742q-11 1 -18.5 9t-7.5 19t7.5 19t18.5 9h157h1q11 0 19 -8.5t8 -20t-8 -19.5t-19 -8h-1h-157zM240 538q-8 1 -13.5 7t-5.5 14t5.5 14t13.5 7h210q8 -1 14 -7t6 -14t-6 -14t-14 -7h-210zM240 337v0q-8 0 -14.5 6t-6.5 14.5t6.5 15t14.5 6.5h210q9 0 15 -6.5t6 -15
t-6 -14.5t-15 -6h-210zM180 -30q-34 0 -57.5 24t-24.5 58v664q0 34 24 58t58 24h99h1q12 0 20 -8.5t8 -20t-8 -19.5t-20 -8h-1h-99q-11 0 -18.5 -7.5t-7.5 -18.5v-664q0 -11 7.5 -18.5t18.5 -7.5h327v-56h-327zM761 309v407q0 11 -8 18.5t-18 7.5h-95q-10 1 -18 9t-8 19
t8 19t18 9h95q33 0 57 -24t24 -58v-407h-55v0zM544 76q0 45 25 71t68 26q41 0 64.5 -25t23.5 -69q0 -43 -25 -69.5t-66 -26.5t-65.5 25.5t-24.5 67.5zM577 77q0 -31 16 -49.5t42 -18.5q28 0 42.5 18t14.5 51t-14.5 51t-42.5 18q-27 0 -42.5 -18.5t-15.5 -51.5zM926 -13h-44
l-78 88h-1v-88h-32v269h32v-170h1l74 83h41l-82 -87z" />
    <glyph glyph-name="ccgl-tuihuoyugao-7" unicode="&#xe623;" horiz-adv-x="1039" 
d="M612 359h-108v52h108q12 0 20.5 8.5t8.5 20.5t-8.5 20.5t-20.5 8.5h-94l115 115q8 8 8 20.5t-8.5 21t-20.5 8.5t-21 -9l-116 -117l-117 117q-8 9 -20 9t-20.5 -8.5t-8.5 -21t8 -20.5l115 -115h-94q-12 0 -20.5 -8.5t-8.5 -20.5t8.5 -20.5t20.5 -8.5h108v-52h-108
q-12 0 -20.5 -8.5t-8.5 -20.5t8.5 -20.5t20.5 -8.5h108v-135q0 -12 8.5 -20.5t20.5 -8.5t20.5 8.5t8.5 20.5v135h108q12 0 20.5 8.5t8.5 20.5t-8.5 20.5t-20.5 8.5zM960 203.5q-3 11.5 -13.5 17.5t-21.5 3l-80 -22q43 87 43 183q0 112 -55.5 207t-150.5 150.5t-207 55.5
t-207 -55.5t-150.5 -150.5t-55.5 -207t55.5 -207t150.5 -150.5t207 -55.5q109 0 203 54h1l0.5 0.5l0.5 0.5v0q13 8 13 24q0 12 -8.5 20.5t-20.5 8.5q-7 0 -13 -3v0q-82 -47 -176 -47q-96 0 -178 47.5t-129.5 129.5t-47.5 178t47.5 178t129.5 129.5t178 47.5t178 -47.5
t129.5 -129.5t47.5 -178q0 -83 -37 -157l-23 85q-3 11 -13.5 17t-22 3t-17.5 -13.5t-3 -22.5l40 -149q4 -12 14 -18q7 -4 14 -4q4 0 8 1l150 41q11 3 17 13.5t3 22z" />
    <glyph glyph-name="tuikuan1" unicode="&#xe66e;" 
d="M512 896q-139 0 -257 -68.5t-186.5 -186.5t-68.5 -257t68.5 -257t186.5 -186.5t257 -68.5t257 68.5t186.5 186.5t68.5 257t-68.5 257t-186.5 186.5t-257 68.5zM871 260q-28 -66 -79 -116.5t-116 -78.5q-68 -29 -143 -29q-135 0 -238 88q-9 8 -9.5 19.5t6.5 19.5
q8 10 21 10v0q10 0 18 -7q87 -75 202 -75q129 0 220 91.5t91 220t-91 219.5t-220 91q-111 0 -197.5 -71.5t-107.5 -180.5l50 43q8 7 18 7q12 0 21 -9q7 -9 6.5 -20.5t-9.5 -18.5l-105 -92q-2 -2 -4 -3v0v0q-1 -1 -2 -1h-0.5h-0.5v0v0l-1 -1h-1v0q-1 -1 -2 -1v0v0h-2v0
q-2 -1 -3 -1v0v0h-2h-0.5h-0.5v0h-0.5h-0.5v0v0h-1h-1v0v0v0q-1 1 -2 1v0v0v0h-2v0v0h-1q0 1 -1 1v0q-1 1 -3 1v1h-2v1l-1 1h-1l-0.5 0.5l-0.5 0.5l-0.5 0.5l-0.5 0.5v0h-1v1v0l-1.5 1.5l-0.5 0.5v0l-0.5 0.5t-0.5 1v0.5v0q-1 1 -1 2v0q-1 1 -1 2l-57 127q-5 10 -0.5 21
t14.5 15q5 3 11 3q18 0 25 -17l19 -41q7 29 18 56q28 65 78.5 115.5t116.5 78.5q68 29 142.5 29t142.5 -29q66 -28 116.5 -78.5t78.5 -115.5q28 -68 28 -142.5t-28 -142.5zM666 493h1q6 0 6 -6v0v-54q0 -7 -7 -7h-100v-44h100h1q6 0 6 -6v0v-54q0 -7 -7 -7h-100v-100
q0 -13 -9.5 -23t-23.5 -10t-23.5 10t-9.5 23v100h-100v0q-7 0 -7 7v0v54v0q0 6 7 6v0h100v44h-100v0q-7 0 -7 7v0v54q0 6 7 6h53l-54 54q-10 10 -10 24t9.5 23.5t23.5 9.5t24 -10l87 -87l88 87q10 10 23.5 10t23.5 -9.5t10 -23.5t-10 -24l-54 -54h52v0z" />
    <glyph glyph-name="daishouhuo" unicode="&#xe61e;" 
d="M596 467h304q22 0 22 14q0 13 -22 13h-359q-16 0 -16 -18q1 -4 8 -8q0 -1 4 -4l4 -3l44 -45q2 -2 4.5 -4t10 -5.5t11.5 2.5q11 9 -5 27l-31 31h21zM872 313l-32 -31q-15 -18 -5 -27q6 -4 11.5 -2.5t10.5 5.5l4 4l45 45l3.5 3t4.5 4q3 2 5 4t2 3l1 1q0 18 -17 18h-359
q-21 0 -21 -13q0 -14 21 -14h305h21zM804 190v-78q0 -18 -12.5 -30t-29.5 -12h-590q-17 0 -30 12q-12 13 -12 30v545q0 18 12.5 30.5t29.5 12.5h590q17 0 30 -13q12 -12 12 -29v-84q0 -7 0.5 -10.5t3.5 -6.5t8 -3q15 0 15 20v88q0 67 -65 67h-598q-66 0 -66 -67v-554
q0 -14 0.5 -19t4 -12t10.5 -14q24 -24 51 -24h598q29 0 53 24q10 10 12 18t2 27v81q0 18 -14 19q-15 0 -15 -18z" />
    <glyph glyph-name="dizhi" unicode="&#xe63b;" 
d="M512 779q67 0 128 -26q60 -25 105.5 -70.5t70.5 -104.5q26 -61 26 -128q0 -92 -47 -170q-3 -5 -5 -10l-2 -2q-3 -3 -5 -6q-14 -19 -140 -148q-59 -60 -122 -124v0q-5 0 -10 -1q-65 63 -126 124q-130 129 -144 149q-2 3 -6 7l-1 1q-2 5 -5 10q-47 78 -47 170q0 67 26 128
q25 59 70.5 104.5t105.5 70.5q61 26 128 26zM512 308q59 0 100.5 41.5t41.5 100t-41.5 100t-100.5 41.5t-100.5 -41.5t-41.5 -100t41.5 -100t100.5 -41.5zM512.5 830q-103.5 0 -191.5 -50.5t-139 -138.5t-51 -191q0 -106 54 -196q3 -11 11 -19l3 -2q25 -36 279 -283v0
q13 -12 31 -12q6 0 12 1h4q17 0 29 12q248 248 271 281l3 4q7 7 10 17q55 91 55 197q0 103 -51 191t-138.5 138.5t-191 50.5zM511.5 359q-37.5 0 -64 26.5t-26.5 64t26.5 64t64 26.5t64.5 -26.5t27 -64t-27 -64t-64.5 -26.5z" />
    <glyph glyph-name="favorite" unicode="&#xe60c;" 
d="M802 -71q-12 0 -21 5l-259 128l-252 -140q-14 -7 -29.5 -4.5t-26.5 14.5q-14 15 -12 37l44 285l-212 198q-21 20 -12 46q7 28 36 32l285 48l122 262q12 25 39 26q28 2 42 -24l133 -256l287 -36q28 -3 37 -30q10 -27 -10 -46l-203 -208l56 -284q3 -20 -9 -36
q-14 -17 -35 -17zM521 111q12 0 21 -5l256 -127l-55 280q-5 23 12 40l200 203l-283 36q-24 2 -34 24l-132 252l-120 -258q-11 -22 -34 -26l-282 -46l208 -194q18 -17 14 -40l-42 -282l249 138q10 4 22 5z" />
    <glyph glyph-name="shouye-shouye" unicode="&#xe61a;" 
d="M972 375q-10 0 -17 7l-425 428q-8 8 -18 8t-18 -8l-425 -426q-7 -7 -17 -7t-16 6q-7 6 -7 15q-1 11 7 20l422 425q23 23 53.5 23t52.5 -23l425 -427q7 -7 7 -18t-9 -18q-7 -5 -15 -5zM638 -102v33h-34v61q0 38 -27 65t-65 27t-65 -27t-27 -65v-61h-34v-33h-189
q-31 0 -52.5 21.5t-21.5 51.5v415q0 11 7 17.5t17 6.5t17 -6.5t7 -17.5v-415q0 -11 7.5 -18t18.5 -7h175v45q0 58 41 99t99 41t99 -41t41 -99v-45h175q11 0 18.5 7t7.5 18v415q0 11 7 17.5t17 6.5t17 -6.5t7 -17.5v-415q0 -30 -21.5 -51.5t-52.5 -21.5h-189zM604 -102v48h48
v-48h-48zM372 -102v48h48v-48h-48z" />
    <glyph glyph-name="gouwucheshixin" unicode="&#xe640;" 
d="M389 116q-30 0 -51.5 -21t-21.5 -51t21.5 -51t51.5 -21t51 21t21 51t-21 51t-51 21zM821 116q-30 0 -51 -21t-21 -51t21 -51t51 -21t51 21t21 51t-21 51t-51 21zM993 645q-6 11 -17 19.5t-18 10.5t-10 3h-5h-699q-4 0 -8 -1l-9 47q-2 32 -23 50t-44 22h-1h-2h-113
q-8 0 -14 -6t-6 -14.5t6 -14.5t14 -6h111q30 -7 31 -34q0 -2 1 -3l90 -491l1 -3q4 -15 22 -36q31 -35 78 -35h513q9 0 15 6t6 14.5t-6 14.5t-15 6h-513q-41 0 -61 43l-23 124h542q59 0 97 63q0 1 0.5 1.5l0.5 0.5l61 163v1q11 31 -2 55z" />
    <glyph glyph-name="xinpinshixin" unicode="&#xe641;" 
d="M841 842h-657q-23 0 -39 -16t-16 -39v-806q0 -23 16 -39.5t39 -16.5l329 154l328 -154q23 0 39.5 16.5t16.5 39.5v806q-1 23 -17.5 39t-38.5 16zM513 165h-133q-7 0 -12.5 5.5t-5.5 13t5.5 13t12.5 5.5h133q7 0 12.5 -5.5t5.5 -13t-5.5 -13t-12.5 -5.5zM644 165h-50
q-7 0 -12.5 5.5t-5.5 13t5.5 13t12.5 5.5h50q7 0 12.5 -5.5t5.5 -13t-5.5 -13t-12.5 -5.5zM755 525l-108 -105l25 -149q2 -11 -7 -18q-4 -3 -11 -3q-4 0 -8 2l-134 70l-134 -70q-10 -5 -19 1q-10 7 -7 18l25 149l-108 105q-8 8 -4 19q3 12 15 13l149 21l67 135q5 10 16 10
t16 -10l67 -135l149 -21q12 -2 15 -13q4 -12 -4 -19z" />
    <glyph glyph-name="sousuoshixin" unicode="&#xe642;" 
d="M87 687h257q6 0 10 4t4 9v20q0 6 -4 10t-10 4h-257q-6 0 -10 -4t-4 -10v-20q0 -5 4 -9t10 -4zM344 25h-257q-6 0 -10 -4t-4 -10v-20q0 -5 4 -9.5t10 -4.5h257q6 0 10 4.5t4 9.5v20q0 6 -4 10t-10 4zM344 367h-257q-6 0 -10 -4t-4 -10v-19q0 -6 4 -10t10 -4h257q6 0 10 4
t4 10v19q0 6 -4 10t-10 4zM946 -14l-132 228q61 40 97.5 105.5t36.5 142.5q0 122 -86.5 208.5t-208.5 86.5q-123 0 -209.5 -86.5t-86.5 -208.5t87 -209t209 -87q62 0 119 25l133 -229q5 -8 14 -11t17.5 2t11.5 14.5t-2 18.5z" />
    <glyph glyph-name="gerenzhongxinxian" unicode="&#xe644;" 
d="M506 -110q-157 0 -265 30q-133 36 -133 105q0 113 62.5 209t166.5 142l9 4l9 -4q1 0 2.5 -1t2.5 -2q-20 14 -47 40q-39 29 -63 91q-21 51 -21 103q0 51 21 104q18 45 62 90l2 2q54 40 88 54q50 20 110 20q63 0 105 -21q46 -23 86 -54l3 -2q43 -43 61 -90q21 -51 21 -103
q0 -51 -21 -104q-24 -61 -62 -91q-20 -19 -30 -26l1 1l10 -5q105 -46 167.5 -141.5t62.5 -208.5q0 -73 -137 -111q-112 -31 -273 -31zM346 335q-90 -43 -144 -127t-54 -183q0 -18 27.5 -35.5t75.5 -30.5q106 -28 255 -28q155 0 263 29q51 15 79 33.5t28 38.5q0 98 -53.5 182
t-143.5 128q-82 -49 -167 -49q-79 0 -166 42zM595 347q-2 -1 -7 -2t-7 -2l-18 -5q18 4 32 9zM416 391q5 -1 14.5 -3.5t14.5 -3.5q48 -12 67 -12t59 11q29 7 31 8q37 15 75 52l2 2q30 22 51 74q18 45 18 88.5t-18 88.5q-16 39 -53 76q-35 26 -78 48q-34 17 -88 17
q-49 0 -94 -18q-30 -12 -78 -47q-36 -37 -52 -76q-18 -44 -18 -88t18 -89q21 -52 51 -74l2 -2q37 -36 76 -52z" />
    <glyph glyph-name="shouye-shixin1" unicode="&#xe646;" 
d="M989 416l-425 427q-23 22 -53 22t-53 -22l-422 -426q-9 -8 -7 -19q0 -9 7 -16q6 -6 16 -6q9 0 17 7l55 56l1 -44q-2 -4 -2 -9v-416q0 -27 29.5 -50t44.5 -23h223v94q0 38 27 65t66 27q37 0 64.5 -26.5t27.5 -65.5v-94h223q31 0 52.5 21.5t21.5 51.5v416q0 2 -1 6v45
l55 -56q7 -7 17 -7q7 0 15 5q9 8 9 17q0 12 -8 20z" />
    <glyph glyph-name="gouwuche1" unicode="&#xe647;" 
d="M44 755h111q30 -7 31 -35q0 -2 1 -3l90 -490q0 -1 1 -4q4 -14 22 -35q31 -36 78 -36h513q9 0 15 6t6 14.5t-6 14.5t-15 6h-513q-41 0 -61 43l-23 125h542q59 0 97 63l0.5 1l0.5 1l61 163v0q11 31 -2 56q-6 11 -17 19t-18 10.5t-10 2.5q-2 1 -5 1h-699q-4 0 -8 -2l-9 47
q-2 33 -23 51t-44 21l-1 0.5t-2 0.5h-113q-8 0 -14 -6t-6 -14.5t6 -14.5t14 -6zM244 637h697q11 -4 16 -12q4 -7 -1 -21l-60 -162q-25 -40 -60 -40h-546h-3l-43 235v0zM389 116q-30 0 -51.5 -21t-21.5 -51t21.5 -51t51.5 -21t51 21t21 51t-21 51t-51 21zM388.5 17
q-11.5 0 -19.5 8t-8 19t8 19t19.5 8t19.5 -8t8 -19t-8 -19t-19.5 -8zM821 116q-30 0 -51 -21t-21 -51t21 -51t51 -21t51 21t21 51t-21 51t-51 21zM821 17q-11 0 -19 8t-8 19t8 19t19 8t19 -8t8 -19t-8 -19t-19 -8z" />
    <glyph glyph-name="kuaiguoqi" unicode="&#xe648;" 
d="M652 507h40v-21h-40v21zM652 474h40v-22h-40v22zM346 451h34v47h-32q-1 -29 -2 -47zM131 643v-435l381 52l381 -52v435h-762zM620 418h18v89h-16v13h16v24h14v-24h40v25h15v-25h15v-13h-15v-89h15v-13h-102v13v0zM479 510h83v37h15v-37h33v-14h-33v-80q0 -25 -24 -25h-29
q-1 7 -3 18q16 -2 29 -2q12 0 11 14v75h-82v14v0zM517 430q-15 23 -30 43l11 9q23 -29 33 -42zM442 546q15 -17 28 -36q-8 -4 -14 -9q-13 20 -26 37zM237 450q-6 1 -13 3q5 21 8 48l13 -2q-3 -25 -8 -49zM265 357h-14v189h14v-43l8 5q12 -13 22 -27l-12 -8q-9 14 -18 24
v-140zM414 437h-63q16 -44 62 -64q-5 -5 -13 -15q-44 25 -59 70q-12 -43 -57 -72q-7 9 -11 13q46 28 56 68h-50v14h52q1 14 2 47h-41v14h41v34h15v-34h46v-61h19v-14h1zM607 365l-56 -1l-50 1q-33 0 -48 22q-6 -4 -23 -24l-8 16l24 21v66h-22v14h37v-84q14 -17 42 -17l52 -1
l58 1q-3 -5 -6 -14zM628 357q-4 5 -10 10q18 16 34 35l12 -10q-18 -19 -36 -35zM677 393l9 9q13 -9 26 -20l-10 -11q-10 9 -25 22zM800 383q0 -23 -21 -23q-11 0 -21 1q-2 11 -3 15q17 -2 21 -2q10 0 10 11v40h-41q-2 -42 -26 -70q-3 4 -11 11q15 18 20 37t5 65v71h68v-156
h-1zM652 440h40v-22h-40v22zM786 438v38h-40q0 -25 -1 -38h41zM746 526h40v-37h-40v37z" />
    <glyph glyph-name="yishiyong" unicode="&#xe649;" 
d="M759 544h59v-38h-59v38zM612 495h-39v-29h39v29zM759 491h59v-38h-59v38zM519 466h38q1 10 1 29h-39v-29zM153 657v-435l381 52l381 -52v435h-762zM425 403q-6 -23 -34 -23h-108q-31 0 -31 32v106h18v-28h121v52h-146v15h163v-94h-17v12h-121v-59q0 -19 17 -19h100
q18 0 21 13q4 12 6 33q8 -4 17 -6q-3 -21 -6 -34zM477 371h-14v115q-9 -16 -18 -30q-3 8 -7 16q28 42 43 98l15 -4q-8 -26 -19 -51v-144zM629 372q-48 6 -81 26q-17 -15 -52 -28q-4 7 -10 14q33 10 49 24q-15 13 -26 31l14 7q9 -15 23 -27q7 10 10 34h-53v56h55v20h-65v14
h65v27h15v-27h66v-14h-66v-20h55v-65h-16v9h-40q-3 -28 -13 -42v-1q31 -18 81 -21q-3 -4 -11 -17zM835 398q0 -25 -23 -25q-15 0 -32 1q-1 6 -3 17q18 -1 29 -1q12 0 12 11v38h-59v-65h-16v65h-59q-4 -43 -25 -70q-2 3 -12 14q13 19 18 41q4 23 4 62v72h165v-160h1zM686 544
h57v-38h-57v38zM743 453v38h-57q0 -17 -1 -38h58z" />
    <glyph glyph-name="yiguoqi" unicode="&#xe64a;" 
d="M780 548h42v-39h-42v39zM681 528h42v-22h-42v22zM681 493h42v-23h-42v23zM153 657v-435l381 52l381 -52v435h-762zM647 435h19v93h-17v14h17v25h15v-25h42v25h15v-25h16v-14h-16v-93h16v-14h-107v14zM499 531h87v39h16v-39h35v-15h-35v-84q0 -13 -6 -19.5t-19 -6.5h-31
q0 8 -3 19q18 -2 30.5 -2t12.5 14v79h-87v15v0zM539 446q-17 27 -32 46l13 9q22 -28 33 -44zM460 569q15 -17 29 -38q-8 -5 -14 -10q-13 21 -27 39zM425 403q-6 -23 -34 -23h-108q-31 0 -31 32v105h18v-28h121v52h-146v15h163v-94h-17v13h-121v-59q0 -19 17 -19h100
q18 0 21 12q4 13 6 33q8 -3 17 -6q-3 -21 -6 -33zM633 378l-59 -1l-52 1q-35 1 -51 24q-6 -5 -24 -26l-8 17q15 14 25 22v70h-23v14h39v-88q14 -18 44 -18l54 -1l62 2q-1 -3 -3.5 -8t-3.5 -8zM656 370q-4 5 -11 11q19 16 36 36l12 -10q-21 -22 -37 -37zM707 408l10 9
q15 -10 27 -21l-11 -11q-13 13 -26 23zM836 398q0 -24 -22 -24h-23q-1 7 -2 16q14 -1 21 -1q11 0 11 11v42h-43q-2 -44 -27 -74q-6 7 -12 11q17 19 21 40q5 19 5 67v76h72v-164h-1zM681 457h42v-22h-42v22zM821 455v40h-41q0 -26 -1 -40h42z" />
  </font>
</defs>
</svg>
